G04 EAGLE Gerber RS-274X export*
G75*
%MOMM*%
%FSLAX34Y34*%
%LPD*%
%INSoldermask Top*%
%IPPOS*%
%AMOC8*
5,1,8,0,0,1.08239X$1,22.5*%
G01*
%ADD10P,1.843527X8X22.500000*%
%ADD11C,1.727200*%
%ADD12P,1.852186X8X112.500000*%
%ADD13P,1.767759X8X202.500000*%
%ADD14P,1.767759X8X22.500000*%
%ADD15P,1.767759X8X112.500000*%
%ADD16C,1.879600*%
%ADD17P,2.034460X8X22.500000*%
%ADD18C,2.003200*%
%ADD19C,2.743200*%
%ADD20C,1.981200*%
%ADD21C,1.981200*%
%ADD22C,1.993900*%
%ADD23C,2.133600*%
%ADD24P,1.843527X8X292.500000*%
%ADD25C,1.703200*%
%ADD26C,2.903200*%

G36*
X640026Y418480D02*
X640026Y418480D01*
X640052Y418478D01*
X640199Y418500D01*
X640346Y418517D01*
X640371Y418525D01*
X640397Y418529D01*
X640535Y418584D01*
X640674Y418634D01*
X640696Y418648D01*
X640721Y418658D01*
X640842Y418743D01*
X640967Y418823D01*
X640985Y418842D01*
X641007Y418857D01*
X641106Y418967D01*
X641209Y419074D01*
X641223Y419096D01*
X641240Y419116D01*
X641312Y419246D01*
X641388Y419373D01*
X641396Y419398D01*
X641409Y419421D01*
X641449Y419564D01*
X641494Y419705D01*
X641496Y419731D01*
X641504Y419756D01*
X641523Y420000D01*
X641523Y570000D01*
X641520Y570026D01*
X641522Y570052D01*
X641500Y570199D01*
X641483Y570346D01*
X641475Y570371D01*
X641471Y570397D01*
X641416Y570535D01*
X641366Y570674D01*
X641352Y570696D01*
X641342Y570721D01*
X641257Y570842D01*
X641177Y570967D01*
X641158Y570985D01*
X641143Y571007D01*
X641033Y571106D01*
X640926Y571209D01*
X640904Y571223D01*
X640884Y571240D01*
X640754Y571312D01*
X640627Y571388D01*
X640602Y571396D01*
X640579Y571409D01*
X640436Y571449D01*
X640295Y571494D01*
X640269Y571496D01*
X640244Y571504D01*
X640000Y571523D01*
X540000Y571523D01*
X539974Y571520D01*
X539948Y571522D01*
X539801Y571500D01*
X539654Y571483D01*
X539629Y571475D01*
X539603Y571471D01*
X539465Y571416D01*
X539326Y571366D01*
X539304Y571352D01*
X539279Y571342D01*
X539158Y571257D01*
X539033Y571177D01*
X539015Y571158D01*
X538993Y571143D01*
X538894Y571033D01*
X538791Y570926D01*
X538777Y570904D01*
X538760Y570884D01*
X538688Y570754D01*
X538612Y570627D01*
X538604Y570602D01*
X538591Y570579D01*
X538551Y570436D01*
X538506Y570295D01*
X538504Y570269D01*
X538496Y570244D01*
X538477Y570000D01*
X538477Y420000D01*
X538480Y419974D01*
X538478Y419948D01*
X538500Y419801D01*
X538517Y419654D01*
X538525Y419629D01*
X538529Y419603D01*
X538584Y419465D01*
X538634Y419326D01*
X538648Y419304D01*
X538658Y419279D01*
X538743Y419158D01*
X538823Y419033D01*
X538842Y419015D01*
X538857Y418993D01*
X538967Y418894D01*
X539074Y418791D01*
X539096Y418777D01*
X539116Y418760D01*
X539246Y418688D01*
X539373Y418612D01*
X539398Y418604D01*
X539421Y418591D01*
X539564Y418551D01*
X539705Y418506D01*
X539731Y418504D01*
X539756Y418496D01*
X540000Y418477D01*
X640000Y418477D01*
X640026Y418480D01*
G37*
D10*
X564600Y240000D03*
X615400Y240000D03*
D11*
X564600Y348080D02*
X564600Y363320D01*
X590000Y363320D02*
X590000Y348080D01*
X615400Y348080D02*
X615400Y363320D01*
D12*
X337300Y429200D03*
X362700Y429200D03*
X337300Y454600D03*
X362700Y454600D03*
X337300Y480000D03*
X362700Y480000D03*
X337300Y505400D03*
X362700Y505400D03*
X337300Y530800D03*
X362700Y530800D03*
D13*
X640800Y60000D03*
X539200Y60000D03*
X1000800Y330000D03*
X899200Y330000D03*
D14*
X179200Y330000D03*
X280800Y330000D03*
D15*
X510000Y459200D03*
X510000Y560800D03*
X510000Y329200D03*
X510000Y430800D03*
D16*
X440000Y-30000D03*
X465400Y-30000D03*
X414600Y-30000D03*
D17*
X577300Y0D03*
X602700Y0D03*
D15*
X510000Y-800D03*
X510000Y100800D03*
D18*
X269000Y120000D02*
X251000Y120000D01*
X251000Y62000D02*
X269000Y62000D01*
X308000Y83000D02*
X308000Y101000D01*
D19*
X226200Y433325D03*
X73800Y433325D03*
X73800Y566675D03*
X226200Y566675D03*
D20*
X124600Y601600D03*
X150000Y601600D03*
X175400Y601600D03*
X251600Y500000D03*
X251600Y525400D03*
X251600Y474600D03*
D21*
X127140Y423800D02*
X109360Y423800D01*
X172860Y423800D02*
X190640Y423800D01*
X190640Y378800D02*
X172860Y378800D01*
X127140Y378800D02*
X109360Y378800D01*
D19*
X1106200Y433325D03*
X953800Y433325D03*
X953800Y566675D03*
X1106200Y566675D03*
D20*
X1004600Y601600D03*
X1030000Y601600D03*
X1055400Y601600D03*
X1131600Y500000D03*
X1131600Y525400D03*
X1131600Y474600D03*
D21*
X1007140Y423800D02*
X989360Y423800D01*
X1052860Y423800D02*
X1070640Y423800D01*
X1070640Y378800D02*
X1052860Y378800D01*
X1007140Y378800D02*
X989360Y378800D01*
D22*
X536470Y125108D02*
X518563Y125108D01*
X643531Y125108D02*
X661438Y125108D01*
X536470Y174892D02*
X518563Y174892D01*
X643531Y174892D02*
X661438Y174892D01*
D23*
X690000Y39200D03*
X690000Y140800D03*
X750800Y355000D03*
X649200Y355000D03*
D24*
X620000Y289840D03*
D25*
X620000Y310160D03*
D24*
X560000Y289840D03*
D25*
X560000Y310160D03*
D26*
X845000Y90000D03*
X735000Y90000D03*
M02*
