G04 EAGLE Gerber RS-274X export*
G75*
%MOMM*%
%FSLAX34Y34*%
%LPD*%
%IN*%
%IPPOS*%
%AMOC8*
5,1,8,0,0,1.08239X$1,22.5*%
G01*
%ADD10C,0.254000*%


D10*
X0Y450000D02*
X210000Y240000D01*
X210000Y-10000D01*
X250000Y-50000D01*
X930000Y-50000D01*
X970000Y-10000D01*
X970000Y240000D01*
X1180000Y450000D01*
X1180000Y550000D01*
X1100000Y630000D01*
X1030000Y630000D01*
X1020000Y640000D01*
X1020000Y660000D01*
X1000000Y680000D01*
X980000Y680000D01*
X960000Y660000D01*
X960000Y640000D01*
X950000Y630000D01*
X80000Y630000D01*
X0Y550000D01*
X0Y450000D01*
X304000Y77000D02*
X312000Y77000D01*
X312000Y107000D01*
X304000Y107000D01*
X304000Y77000D01*
X245000Y116000D02*
X275000Y116000D01*
X275000Y124000D01*
X245000Y124000D01*
X245000Y116000D01*
X245000Y58000D02*
X275000Y58000D01*
X275000Y66000D01*
X245000Y66000D01*
X245000Y58000D01*
X606250Y543468D02*
X606250Y544532D01*
X606180Y545594D01*
X606042Y546648D01*
X605834Y547692D01*
X605559Y548720D01*
X605217Y549727D01*
X604809Y550710D01*
X604339Y551664D01*
X603807Y552586D01*
X603216Y553470D01*
X602568Y554314D01*
X601867Y555114D01*
X601114Y555867D01*
X600314Y556568D01*
X599470Y557216D01*
X598586Y557807D01*
X597664Y558339D01*
X596710Y558809D01*
X595727Y559217D01*
X594720Y559559D01*
X593692Y559834D01*
X592648Y560042D01*
X591594Y560180D01*
X590532Y560250D01*
X589468Y560250D01*
X588406Y560180D01*
X587352Y560042D01*
X586308Y559834D01*
X585280Y559559D01*
X584273Y559217D01*
X583290Y558809D01*
X582336Y558339D01*
X581414Y557807D01*
X580530Y557216D01*
X579686Y556568D01*
X578886Y555867D01*
X578133Y555114D01*
X577432Y554314D01*
X576784Y553470D01*
X576193Y552586D01*
X575661Y551664D01*
X575191Y550710D01*
X574783Y549727D01*
X574441Y548720D01*
X574166Y547692D01*
X573958Y546648D01*
X573820Y545594D01*
X573750Y544532D01*
X573750Y543468D01*
X573820Y542406D01*
X573958Y541352D01*
X574166Y540308D01*
X574441Y539280D01*
X574783Y538273D01*
X575191Y537290D01*
X575661Y536336D01*
X576193Y535414D01*
X576784Y534530D01*
X577432Y533686D01*
X578133Y532886D01*
X578886Y532133D01*
X579686Y531432D01*
X580530Y530784D01*
X581414Y530193D01*
X582336Y529661D01*
X583290Y529191D01*
X584273Y528783D01*
X585280Y528441D01*
X586308Y528166D01*
X587352Y527958D01*
X588406Y527820D01*
X589468Y527750D01*
X590532Y527750D01*
X591594Y527820D01*
X592648Y527958D01*
X593692Y528166D01*
X594720Y528441D01*
X595727Y528783D01*
X596710Y529191D01*
X597664Y529661D01*
X598586Y530193D01*
X599470Y530784D01*
X600314Y531432D01*
X601114Y532133D01*
X601867Y532886D01*
X602568Y533686D01*
X603216Y534530D01*
X603807Y535414D01*
X604339Y536336D01*
X604809Y537290D01*
X605217Y538273D01*
X605559Y539280D01*
X605834Y540308D01*
X606042Y541352D01*
X606180Y542406D01*
X606250Y543468D01*
X886250Y599468D02*
X886250Y600532D01*
X886180Y601594D01*
X886042Y602648D01*
X885834Y603692D01*
X885559Y604720D01*
X885217Y605727D01*
X884809Y606710D01*
X884339Y607664D01*
X883807Y608586D01*
X883216Y609470D01*
X882568Y610314D01*
X881867Y611114D01*
X881114Y611867D01*
X880314Y612568D01*
X879470Y613216D01*
X878586Y613807D01*
X877664Y614339D01*
X876710Y614809D01*
X875727Y615217D01*
X874720Y615559D01*
X873692Y615834D01*
X872648Y616042D01*
X871594Y616180D01*
X870532Y616250D01*
X869468Y616250D01*
X868406Y616180D01*
X867352Y616042D01*
X866308Y615834D01*
X865280Y615559D01*
X864273Y615217D01*
X863290Y614809D01*
X862336Y614339D01*
X861414Y613807D01*
X860530Y613216D01*
X859686Y612568D01*
X858886Y611867D01*
X858133Y611114D01*
X857432Y610314D01*
X856784Y609470D01*
X856193Y608586D01*
X855661Y607664D01*
X855191Y606710D01*
X854783Y605727D01*
X854441Y604720D01*
X854166Y603692D01*
X853958Y602648D01*
X853820Y601594D01*
X853750Y600532D01*
X853750Y599468D01*
X853820Y598406D01*
X853958Y597352D01*
X854166Y596308D01*
X854441Y595280D01*
X854783Y594273D01*
X855191Y593290D01*
X855661Y592336D01*
X856193Y591414D01*
X856784Y590530D01*
X857432Y589686D01*
X858133Y588886D01*
X858886Y588133D01*
X859686Y587432D01*
X860530Y586784D01*
X861414Y586193D01*
X862336Y585661D01*
X863290Y585191D01*
X864273Y584783D01*
X865280Y584441D01*
X866308Y584166D01*
X867352Y583958D01*
X868406Y583820D01*
X869468Y583750D01*
X870532Y583750D01*
X871594Y583820D01*
X872648Y583958D01*
X873692Y584166D01*
X874720Y584441D01*
X875727Y584783D01*
X876710Y585191D01*
X877664Y585661D01*
X878586Y586193D01*
X879470Y586784D01*
X880314Y587432D01*
X881114Y588133D01*
X881867Y588886D01*
X882568Y589686D01*
X883216Y590530D01*
X883807Y591414D01*
X884339Y592336D01*
X884809Y593290D01*
X885217Y594273D01*
X885559Y595280D01*
X885834Y596308D01*
X886042Y597352D01*
X886180Y598406D01*
X886250Y599468D01*
X456250Y599468D02*
X456250Y600532D01*
X456180Y601594D01*
X456042Y602648D01*
X455834Y603692D01*
X455559Y604720D01*
X455217Y605727D01*
X454809Y606710D01*
X454339Y607664D01*
X453807Y608586D01*
X453216Y609470D01*
X452568Y610314D01*
X451867Y611114D01*
X451114Y611867D01*
X450314Y612568D01*
X449470Y613216D01*
X448586Y613807D01*
X447664Y614339D01*
X446710Y614809D01*
X445727Y615217D01*
X444720Y615559D01*
X443692Y615834D01*
X442648Y616042D01*
X441594Y616180D01*
X440532Y616250D01*
X439468Y616250D01*
X438406Y616180D01*
X437352Y616042D01*
X436308Y615834D01*
X435280Y615559D01*
X434273Y615217D01*
X433290Y614809D01*
X432336Y614339D01*
X431414Y613807D01*
X430530Y613216D01*
X429686Y612568D01*
X428886Y611867D01*
X428133Y611114D01*
X427432Y610314D01*
X426784Y609470D01*
X426193Y608586D01*
X425661Y607664D01*
X425191Y606710D01*
X424783Y605727D01*
X424441Y604720D01*
X424166Y603692D01*
X423958Y602648D01*
X423820Y601594D01*
X423750Y600532D01*
X423750Y599468D01*
X423820Y598406D01*
X423958Y597352D01*
X424166Y596308D01*
X424441Y595280D01*
X424783Y594273D01*
X425191Y593290D01*
X425661Y592336D01*
X426193Y591414D01*
X426784Y590530D01*
X427432Y589686D01*
X428133Y588886D01*
X428886Y588133D01*
X429686Y587432D01*
X430530Y586784D01*
X431414Y586193D01*
X432336Y585661D01*
X433290Y585191D01*
X434273Y584783D01*
X435280Y584441D01*
X436308Y584166D01*
X437352Y583958D01*
X438406Y583820D01*
X439468Y583750D01*
X440532Y583750D01*
X441594Y583820D01*
X442648Y583958D01*
X443692Y584166D01*
X444720Y584441D01*
X445727Y584783D01*
X446710Y585191D01*
X447664Y585661D01*
X448586Y586193D01*
X449470Y586784D01*
X450314Y587432D01*
X451114Y588133D01*
X451867Y588886D01*
X452568Y589686D01*
X453216Y590530D01*
X453807Y591414D01*
X454339Y592336D01*
X454809Y593290D01*
X455217Y594273D01*
X455559Y595280D01*
X455834Y596308D01*
X456042Y597352D01*
X456180Y598406D01*
X456250Y599468D01*
X946250Y-532D02*
X946250Y532D01*
X946180Y1594D01*
X946042Y2648D01*
X945834Y3692D01*
X945559Y4720D01*
X945217Y5727D01*
X944809Y6710D01*
X944339Y7664D01*
X943807Y8586D01*
X943216Y9470D01*
X942568Y10314D01*
X941867Y11114D01*
X941114Y11867D01*
X940314Y12568D01*
X939470Y13216D01*
X938586Y13807D01*
X937664Y14339D01*
X936710Y14809D01*
X935727Y15217D01*
X934720Y15559D01*
X933692Y15834D01*
X932648Y16042D01*
X931594Y16180D01*
X930532Y16250D01*
X929468Y16250D01*
X928406Y16180D01*
X927352Y16042D01*
X926308Y15834D01*
X925280Y15559D01*
X924273Y15217D01*
X923290Y14809D01*
X922336Y14339D01*
X921414Y13807D01*
X920530Y13216D01*
X919686Y12568D01*
X918886Y11867D01*
X918133Y11114D01*
X917432Y10314D01*
X916784Y9470D01*
X916193Y8586D01*
X915661Y7664D01*
X915191Y6710D01*
X914783Y5727D01*
X914441Y4720D01*
X914166Y3692D01*
X913958Y2648D01*
X913820Y1594D01*
X913750Y532D01*
X913750Y-532D01*
X913820Y-1594D01*
X913958Y-2648D01*
X914166Y-3692D01*
X914441Y-4720D01*
X914783Y-5727D01*
X915191Y-6710D01*
X915661Y-7664D01*
X916193Y-8586D01*
X916784Y-9470D01*
X917432Y-10314D01*
X918133Y-11114D01*
X918886Y-11867D01*
X919686Y-12568D01*
X920530Y-13216D01*
X921414Y-13807D01*
X922336Y-14339D01*
X923290Y-14809D01*
X924273Y-15217D01*
X925280Y-15559D01*
X926308Y-15834D01*
X927352Y-16042D01*
X928406Y-16180D01*
X929468Y-16250D01*
X930532Y-16250D01*
X931594Y-16180D01*
X932648Y-16042D01*
X933692Y-15834D01*
X934720Y-15559D01*
X935727Y-15217D01*
X936710Y-14809D01*
X937664Y-14339D01*
X938586Y-13807D01*
X939470Y-13216D01*
X940314Y-12568D01*
X941114Y-11867D01*
X941867Y-11114D01*
X942568Y-10314D01*
X943216Y-9470D01*
X943807Y-8586D01*
X944339Y-7664D01*
X944809Y-6710D01*
X945217Y-5727D01*
X945559Y-4720D01*
X945834Y-3692D01*
X946042Y-2648D01*
X946180Y-1594D01*
X946250Y-532D01*
X266250Y-532D02*
X266250Y532D01*
X266180Y1594D01*
X266042Y2648D01*
X265834Y3692D01*
X265559Y4720D01*
X265217Y5727D01*
X264809Y6710D01*
X264339Y7664D01*
X263807Y8586D01*
X263216Y9470D01*
X262568Y10314D01*
X261867Y11114D01*
X261114Y11867D01*
X260314Y12568D01*
X259470Y13216D01*
X258586Y13807D01*
X257664Y14339D01*
X256710Y14809D01*
X255727Y15217D01*
X254720Y15559D01*
X253692Y15834D01*
X252648Y16042D01*
X251594Y16180D01*
X250532Y16250D01*
X249468Y16250D01*
X248406Y16180D01*
X247352Y16042D01*
X246308Y15834D01*
X245280Y15559D01*
X244273Y15217D01*
X243290Y14809D01*
X242336Y14339D01*
X241414Y13807D01*
X240530Y13216D01*
X239686Y12568D01*
X238886Y11867D01*
X238133Y11114D01*
X237432Y10314D01*
X236784Y9470D01*
X236193Y8586D01*
X235661Y7664D01*
X235191Y6710D01*
X234783Y5727D01*
X234441Y4720D01*
X234166Y3692D01*
X233958Y2648D01*
X233820Y1594D01*
X233750Y532D01*
X233750Y-532D01*
X233820Y-1594D01*
X233958Y-2648D01*
X234166Y-3692D01*
X234441Y-4720D01*
X234783Y-5727D01*
X235191Y-6710D01*
X235661Y-7664D01*
X236193Y-8586D01*
X236784Y-9470D01*
X237432Y-10314D01*
X238133Y-11114D01*
X238886Y-11867D01*
X239686Y-12568D01*
X240530Y-13216D01*
X241414Y-13807D01*
X242336Y-14339D01*
X243290Y-14809D01*
X244273Y-15217D01*
X245280Y-15559D01*
X246308Y-15834D01*
X247352Y-16042D01*
X248406Y-16180D01*
X249468Y-16250D01*
X250532Y-16250D01*
X251594Y-16180D01*
X252648Y-16042D01*
X253692Y-15834D01*
X254720Y-15559D01*
X255727Y-15217D01*
X256710Y-14809D01*
X257664Y-14339D01*
X258586Y-13807D01*
X259470Y-13216D01*
X260314Y-12568D01*
X261114Y-11867D01*
X261867Y-11114D01*
X262568Y-10314D01*
X263216Y-9470D01*
X263807Y-8586D01*
X264339Y-7664D01*
X264809Y-6710D01*
X265217Y-5727D01*
X265559Y-4720D01*
X265834Y-3692D01*
X266042Y-2648D01*
X266180Y-1594D01*
X266250Y-532D01*
X481000Y309568D02*
X481000Y310432D01*
X480932Y311294D01*
X480797Y312148D01*
X480595Y312988D01*
X480328Y313810D01*
X479997Y314609D01*
X479605Y315379D01*
X479153Y316116D01*
X478645Y316815D01*
X478084Y317473D01*
X477473Y318084D01*
X476815Y318645D01*
X476116Y319153D01*
X475379Y319605D01*
X474609Y319997D01*
X473810Y320328D01*
X472988Y320595D01*
X472148Y320797D01*
X471294Y320932D01*
X470432Y321000D01*
X469568Y321000D01*
X468706Y320932D01*
X467852Y320797D01*
X467012Y320595D01*
X466190Y320328D01*
X465391Y319997D01*
X464621Y319605D01*
X463884Y319153D01*
X463185Y318645D01*
X462527Y318084D01*
X461916Y317473D01*
X461355Y316815D01*
X460847Y316116D01*
X460395Y315379D01*
X460003Y314609D01*
X459672Y313810D01*
X459405Y312988D01*
X459203Y312148D01*
X459068Y311294D01*
X459000Y310432D01*
X459000Y309568D01*
X459068Y308706D01*
X459203Y307852D01*
X459405Y307012D01*
X459672Y306190D01*
X460003Y305391D01*
X460395Y304621D01*
X460847Y303884D01*
X461355Y303185D01*
X461916Y302527D01*
X462527Y301916D01*
X463185Y301355D01*
X463884Y300847D01*
X464621Y300395D01*
X465391Y300003D01*
X466190Y299672D01*
X467012Y299405D01*
X467852Y299203D01*
X468706Y299068D01*
X469568Y299000D01*
X470432Y299000D01*
X471294Y299068D01*
X472148Y299203D01*
X472988Y299405D01*
X473810Y299672D01*
X474609Y300003D01*
X475379Y300395D01*
X476116Y300847D01*
X476815Y301355D01*
X477473Y301916D01*
X478084Y302527D01*
X478645Y303185D01*
X479153Y303884D01*
X479605Y304621D01*
X479997Y305391D01*
X480328Y306190D01*
X480595Y307012D01*
X480797Y307852D01*
X480932Y308706D01*
X481000Y309568D01*
X1001000Y649568D02*
X1001000Y650432D01*
X1000932Y651294D01*
X1000797Y652148D01*
X1000595Y652988D01*
X1000328Y653810D01*
X999997Y654609D01*
X999605Y655379D01*
X999153Y656116D01*
X998645Y656815D01*
X998084Y657473D01*
X997473Y658084D01*
X996815Y658645D01*
X996116Y659153D01*
X995379Y659605D01*
X994609Y659997D01*
X993810Y660328D01*
X992988Y660595D01*
X992148Y660797D01*
X991294Y660932D01*
X990432Y661000D01*
X989568Y661000D01*
X988706Y660932D01*
X987852Y660797D01*
X987012Y660595D01*
X986190Y660328D01*
X985391Y659997D01*
X984621Y659605D01*
X983884Y659153D01*
X983185Y658645D01*
X982527Y658084D01*
X981916Y657473D01*
X981355Y656815D01*
X980847Y656116D01*
X980395Y655379D01*
X980003Y654609D01*
X979672Y653810D01*
X979405Y652988D01*
X979203Y652148D01*
X979068Y651294D01*
X979000Y650432D01*
X979000Y649568D01*
X979068Y648706D01*
X979203Y647852D01*
X979405Y647012D01*
X979672Y646190D01*
X980003Y645391D01*
X980395Y644621D01*
X980847Y643884D01*
X981355Y643185D01*
X981916Y642527D01*
X982527Y641916D01*
X983185Y641355D01*
X983884Y640847D01*
X984621Y640395D01*
X985391Y640003D01*
X986190Y639672D01*
X987012Y639405D01*
X987852Y639203D01*
X988706Y639068D01*
X989568Y639000D01*
X990432Y639000D01*
X991294Y639068D01*
X992148Y639203D01*
X992988Y639405D01*
X993810Y639672D01*
X994609Y640003D01*
X995379Y640395D01*
X996116Y640847D01*
X996815Y641355D01*
X997473Y641916D01*
X998084Y642527D01*
X998645Y643185D01*
X999153Y643884D01*
X999605Y644621D01*
X999997Y645391D01*
X1000328Y646190D01*
X1000595Y647012D01*
X1000797Y647852D01*
X1000932Y648706D01*
X1001000Y649568D01*
X845482Y76500D02*
X846444Y76569D01*
X847399Y76706D01*
X848341Y76911D01*
X849266Y77183D01*
X850170Y77520D01*
X851047Y77920D01*
X851893Y78382D01*
X852704Y78904D01*
X853476Y79482D01*
X854205Y80113D01*
X854887Y80795D01*
X855518Y81524D01*
X856096Y82296D01*
X856618Y83107D01*
X857080Y83953D01*
X857480Y84830D01*
X857817Y85734D01*
X858089Y86659D01*
X858294Y87602D01*
X858431Y88556D01*
X858500Y89518D01*
X858500Y90482D01*
X858431Y91444D01*
X858294Y92399D01*
X858089Y93341D01*
X857817Y94266D01*
X857480Y95170D01*
X857080Y96047D01*
X856618Y96893D01*
X856096Y97704D01*
X855518Y98476D01*
X854887Y99205D01*
X854205Y99887D01*
X853476Y100518D01*
X852704Y101096D01*
X851893Y101618D01*
X851047Y102080D01*
X850170Y102480D01*
X849266Y102817D01*
X848341Y103089D01*
X847399Y103294D01*
X846444Y103431D01*
X845482Y103500D01*
X844518Y103500D01*
X843556Y103431D01*
X842602Y103294D01*
X841659Y103089D01*
X840734Y102817D01*
X839830Y102480D01*
X838953Y102080D01*
X838107Y101618D01*
X837296Y101096D01*
X836524Y100518D01*
X835795Y99887D01*
X835113Y99205D01*
X834482Y98476D01*
X833904Y97704D01*
X833382Y96893D01*
X832920Y96047D01*
X832520Y95170D01*
X832183Y94266D01*
X831911Y93341D01*
X831706Y92399D01*
X831569Y91444D01*
X831500Y90482D01*
X831500Y89518D01*
X831569Y88556D01*
X831706Y87602D01*
X831911Y86659D01*
X832183Y85734D01*
X832520Y84830D01*
X832920Y83953D01*
X833382Y83107D01*
X833904Y82296D01*
X834482Y81524D01*
X835113Y80795D01*
X835795Y80113D01*
X836524Y79482D01*
X837296Y78904D01*
X838107Y78382D01*
X838953Y77920D01*
X839830Y77520D01*
X840734Y77183D01*
X841659Y76911D01*
X842602Y76706D01*
X843556Y76569D01*
X844518Y76500D01*
X845482Y76500D01*
X735482Y76500D02*
X736444Y76569D01*
X737399Y76706D01*
X738341Y76911D01*
X739266Y77183D01*
X740170Y77520D01*
X741047Y77920D01*
X741893Y78382D01*
X742704Y78904D01*
X743476Y79482D01*
X744205Y80113D01*
X744887Y80795D01*
X745518Y81524D01*
X746096Y82296D01*
X746618Y83107D01*
X747080Y83953D01*
X747480Y84830D01*
X747817Y85734D01*
X748089Y86659D01*
X748294Y87602D01*
X748431Y88556D01*
X748500Y89518D01*
X748500Y90482D01*
X748431Y91444D01*
X748294Y92399D01*
X748089Y93341D01*
X747817Y94266D01*
X747480Y95170D01*
X747080Y96047D01*
X746618Y96893D01*
X746096Y97704D01*
X745518Y98476D01*
X744887Y99205D01*
X744205Y99887D01*
X743476Y100518D01*
X742704Y101096D01*
X741893Y101618D01*
X741047Y102080D01*
X740170Y102480D01*
X739266Y102817D01*
X738341Y103089D01*
X737399Y103294D01*
X736444Y103431D01*
X735482Y103500D01*
X734518Y103500D01*
X733556Y103431D01*
X732602Y103294D01*
X731659Y103089D01*
X730734Y102817D01*
X729830Y102480D01*
X728953Y102080D01*
X728107Y101618D01*
X727296Y101096D01*
X726524Y100518D01*
X725795Y99887D01*
X725113Y99205D01*
X724482Y98476D01*
X723904Y97704D01*
X723382Y96893D01*
X722920Y96047D01*
X722520Y95170D01*
X722183Y94266D01*
X721911Y93341D01*
X721706Y92399D01*
X721569Y91444D01*
X721500Y90482D01*
X721500Y89518D01*
X721569Y88556D01*
X721706Y87602D01*
X721911Y86659D01*
X722183Y85734D01*
X722520Y84830D01*
X722920Y83953D01*
X723382Y83107D01*
X723904Y82296D01*
X724482Y81524D01*
X725113Y80795D01*
X725795Y80113D01*
X726524Y79482D01*
X727296Y78904D01*
X728107Y78382D01*
X728953Y77920D01*
X729830Y77520D01*
X730734Y77183D01*
X731659Y76911D01*
X732602Y76706D01*
X733556Y76569D01*
X734518Y76500D01*
X735482Y76500D01*
M02*
