G04 EAGLE Gerber RS-274X export*
G75*
%MOMM*%
%FSLAX34Y34*%
%LPD*%
%INBottom Copper*%
%IPPOS*%
%AMOC8*
5,1,8,0,0,1.08239X$1,22.5*%
G01*
%ADD10P,1.623585X8X22.500000*%
%ADD11C,1.524000*%
%ADD12P,1.632244X8X112.500000*%
%ADD13P,1.547818X8X202.500000*%
%ADD14P,1.547818X8X22.500000*%
%ADD15P,1.547818X8X112.500000*%
%ADD16C,1.676400*%
%ADD17P,1.814519X8X22.500000*%
%ADD18C,1.800000*%
%ADD19C,2.540000*%
%ADD20C,1.778000*%
%ADD21C,1.778000*%
%ADD22C,1.790700*%
%ADD23C,1.930400*%
%ADD24P,1.623585X8X292.500000*%
%ADD25C,1.500000*%
%ADD26C,0.762000*%
%ADD27C,0.304800*%
%ADD28C,0.914400*%

G36*
X405745Y-39066D02*
X405745Y-39066D01*
X405816Y-39064D01*
X405865Y-39046D01*
X405917Y-39038D01*
X405980Y-39004D01*
X406047Y-38979D01*
X406088Y-38947D01*
X406134Y-38922D01*
X406183Y-38870D01*
X406239Y-38826D01*
X406268Y-38782D01*
X406303Y-38744D01*
X406334Y-38679D01*
X406372Y-38619D01*
X406385Y-38568D01*
X406407Y-38521D01*
X406415Y-38450D01*
X406433Y-38380D01*
X406428Y-38328D01*
X406434Y-38277D01*
X406419Y-38206D01*
X406413Y-38135D01*
X406393Y-38087D01*
X406382Y-38036D01*
X406345Y-37975D01*
X406317Y-37909D01*
X406272Y-37853D01*
X406256Y-37825D01*
X406238Y-37810D01*
X406212Y-37778D01*
X404910Y-36475D01*
X403169Y-32274D01*
X403169Y-27726D01*
X404910Y-23525D01*
X408125Y-20310D01*
X412326Y-18569D01*
X416874Y-18569D01*
X421075Y-20310D01*
X424290Y-23525D01*
X426031Y-27726D01*
X426031Y-32274D01*
X424290Y-36475D01*
X422988Y-37778D01*
X422946Y-37836D01*
X422897Y-37888D01*
X422875Y-37935D01*
X422844Y-37977D01*
X422823Y-38046D01*
X422793Y-38111D01*
X422787Y-38163D01*
X422772Y-38213D01*
X422774Y-38284D01*
X422766Y-38355D01*
X422777Y-38406D01*
X422778Y-38458D01*
X422803Y-38526D01*
X422818Y-38596D01*
X422845Y-38641D01*
X422863Y-38689D01*
X422908Y-38745D01*
X422944Y-38807D01*
X422984Y-38841D01*
X423016Y-38881D01*
X423077Y-38920D01*
X423131Y-38967D01*
X423179Y-38986D01*
X423223Y-39014D01*
X423293Y-39032D01*
X423359Y-39059D01*
X423431Y-39067D01*
X423462Y-39075D01*
X423485Y-39073D01*
X423526Y-39077D01*
X431074Y-39077D01*
X431145Y-39066D01*
X431216Y-39064D01*
X431265Y-39046D01*
X431317Y-39038D01*
X431380Y-39004D01*
X431447Y-38979D01*
X431488Y-38947D01*
X431534Y-38922D01*
X431583Y-38870D01*
X431639Y-38826D01*
X431668Y-38782D01*
X431703Y-38744D01*
X431734Y-38679D01*
X431772Y-38619D01*
X431785Y-38568D01*
X431807Y-38521D01*
X431815Y-38450D01*
X431833Y-38380D01*
X431828Y-38328D01*
X431834Y-38277D01*
X431819Y-38206D01*
X431813Y-38135D01*
X431793Y-38087D01*
X431782Y-38036D01*
X431745Y-37975D01*
X431717Y-37909D01*
X431672Y-37853D01*
X431656Y-37825D01*
X431638Y-37810D01*
X431612Y-37778D01*
X430310Y-36475D01*
X428569Y-32274D01*
X428569Y-27726D01*
X430310Y-23525D01*
X433525Y-20310D01*
X437726Y-18569D01*
X442274Y-18569D01*
X446475Y-20310D01*
X449690Y-23525D01*
X451431Y-27726D01*
X451431Y-32274D01*
X449690Y-36475D01*
X448388Y-37778D01*
X448346Y-37836D01*
X448297Y-37888D01*
X448275Y-37935D01*
X448244Y-37977D01*
X448223Y-38046D01*
X448193Y-38111D01*
X448187Y-38163D01*
X448172Y-38213D01*
X448174Y-38284D01*
X448166Y-38355D01*
X448177Y-38406D01*
X448178Y-38458D01*
X448203Y-38526D01*
X448218Y-38596D01*
X448245Y-38641D01*
X448263Y-38689D01*
X448308Y-38745D01*
X448344Y-38807D01*
X448384Y-38841D01*
X448416Y-38881D01*
X448477Y-38920D01*
X448531Y-38967D01*
X448579Y-38986D01*
X448623Y-39014D01*
X448693Y-39032D01*
X448759Y-39059D01*
X448831Y-39067D01*
X448862Y-39075D01*
X448885Y-39073D01*
X448926Y-39077D01*
X456474Y-39077D01*
X456545Y-39066D01*
X456616Y-39064D01*
X456665Y-39046D01*
X456717Y-39038D01*
X456780Y-39004D01*
X456847Y-38979D01*
X456888Y-38947D01*
X456934Y-38922D01*
X456983Y-38870D01*
X457039Y-38826D01*
X457068Y-38782D01*
X457103Y-38744D01*
X457134Y-38679D01*
X457172Y-38619D01*
X457185Y-38568D01*
X457207Y-38521D01*
X457215Y-38450D01*
X457233Y-38380D01*
X457228Y-38328D01*
X457234Y-38277D01*
X457219Y-38206D01*
X457213Y-38135D01*
X457193Y-38087D01*
X457182Y-38036D01*
X457145Y-37975D01*
X457117Y-37909D01*
X457072Y-37853D01*
X457056Y-37825D01*
X457038Y-37810D01*
X457012Y-37778D01*
X455710Y-36475D01*
X453969Y-32274D01*
X453969Y-27726D01*
X455710Y-23525D01*
X458925Y-20310D01*
X463126Y-18569D01*
X467674Y-18569D01*
X471875Y-20310D01*
X475090Y-23525D01*
X476831Y-27726D01*
X476831Y-32274D01*
X475090Y-36475D01*
X473788Y-37778D01*
X473746Y-37836D01*
X473697Y-37888D01*
X473675Y-37935D01*
X473644Y-37977D01*
X473623Y-38046D01*
X473593Y-38111D01*
X473587Y-38163D01*
X473572Y-38213D01*
X473574Y-38284D01*
X473566Y-38355D01*
X473577Y-38406D01*
X473578Y-38458D01*
X473603Y-38526D01*
X473618Y-38596D01*
X473645Y-38641D01*
X473663Y-38689D01*
X473708Y-38745D01*
X473744Y-38807D01*
X473784Y-38841D01*
X473816Y-38881D01*
X473877Y-38920D01*
X473931Y-38967D01*
X473979Y-38986D01*
X474023Y-39014D01*
X474093Y-39032D01*
X474159Y-39059D01*
X474231Y-39067D01*
X474262Y-39075D01*
X474285Y-39073D01*
X474326Y-39077D01*
X925160Y-39077D01*
X925250Y-39063D01*
X925341Y-39055D01*
X925371Y-39043D01*
X925403Y-39038D01*
X925484Y-38995D01*
X925568Y-38959D01*
X925600Y-38933D01*
X925620Y-38922D01*
X925643Y-38899D01*
X925699Y-38854D01*
X936299Y-28254D01*
X936327Y-28215D01*
X936363Y-28182D01*
X936399Y-28115D01*
X936443Y-28054D01*
X936457Y-28008D01*
X936480Y-27966D01*
X936493Y-27891D01*
X936515Y-27819D01*
X936514Y-27771D01*
X936522Y-27724D01*
X936511Y-27649D01*
X936509Y-27573D01*
X936492Y-27528D01*
X936485Y-27480D01*
X936451Y-27413D01*
X936424Y-27342D01*
X936394Y-27304D01*
X936373Y-27262D01*
X936318Y-27209D01*
X936271Y-27150D01*
X936230Y-27124D01*
X936196Y-27090D01*
X936128Y-27058D01*
X936064Y-27017D01*
X936017Y-27005D01*
X935974Y-26984D01*
X935899Y-26975D01*
X935825Y-26957D01*
X935778Y-26960D01*
X935730Y-26955D01*
X935602Y-26974D01*
X935580Y-26976D01*
X935574Y-26978D01*
X935564Y-26980D01*
X933621Y-27501D01*
X926379Y-27501D01*
X919385Y-25627D01*
X913114Y-22006D01*
X907994Y-16886D01*
X904373Y-10615D01*
X902499Y-3621D01*
X902499Y3621D01*
X904373Y10615D01*
X907994Y16886D01*
X913114Y22006D01*
X919385Y25627D01*
X926379Y27501D01*
X933621Y27501D01*
X940615Y25627D01*
X946886Y22006D01*
X952006Y16886D01*
X955627Y10615D01*
X957501Y3621D01*
X957501Y-3621D01*
X956980Y-5564D01*
X956975Y-5612D01*
X956961Y-5658D01*
X956963Y-5733D01*
X956956Y-5809D01*
X956966Y-5856D01*
X956967Y-5904D01*
X956993Y-5975D01*
X957010Y-6049D01*
X957035Y-6090D01*
X957052Y-6135D01*
X957099Y-6194D01*
X957139Y-6258D01*
X957176Y-6289D01*
X957206Y-6327D01*
X957269Y-6368D01*
X957327Y-6416D01*
X957372Y-6434D01*
X957413Y-6460D01*
X957486Y-6478D01*
X957557Y-6506D01*
X957605Y-6508D01*
X957651Y-6520D01*
X957727Y-6514D01*
X957802Y-6517D01*
X957848Y-6504D01*
X957896Y-6501D01*
X957966Y-6471D01*
X958039Y-6450D01*
X958079Y-6423D01*
X958123Y-6404D01*
X958223Y-6324D01*
X958242Y-6311D01*
X958246Y-6306D01*
X958254Y-6299D01*
X958854Y-5699D01*
X958908Y-5624D01*
X958967Y-5555D01*
X958979Y-5525D01*
X958998Y-5499D01*
X959025Y-5412D01*
X959059Y-5327D01*
X959063Y-5286D01*
X959070Y-5264D01*
X959069Y-5232D01*
X959077Y-5160D01*
X959077Y242173D01*
X960740Y246187D01*
X1168854Y454301D01*
X1168907Y454375D01*
X1168967Y454445D01*
X1168979Y454475D01*
X1168998Y454501D01*
X1169025Y454588D01*
X1169059Y454673D01*
X1169063Y454714D01*
X1169070Y454736D01*
X1169069Y454768D01*
X1169077Y454840D01*
X1169077Y545160D01*
X1169063Y545250D01*
X1169055Y545341D01*
X1169043Y545371D01*
X1169038Y545403D01*
X1168995Y545484D01*
X1168959Y545568D01*
X1168933Y545600D01*
X1168922Y545620D01*
X1168899Y545643D01*
X1168854Y545699D01*
X1095699Y618854D01*
X1095625Y618907D01*
X1095555Y618967D01*
X1095525Y618979D01*
X1095499Y618998D01*
X1095412Y619025D01*
X1095327Y619059D01*
X1095286Y619063D01*
X1095264Y619070D01*
X1095232Y619069D01*
X1095160Y619077D01*
X1027827Y619077D01*
X1023813Y620740D01*
X1014015Y630538D01*
X1013941Y630591D01*
X1013871Y630651D01*
X1013841Y630663D01*
X1013815Y630682D01*
X1013728Y630709D01*
X1013643Y630743D01*
X1013602Y630747D01*
X1013580Y630754D01*
X1013548Y630753D01*
X1013476Y630761D01*
X1000113Y630761D01*
X1000097Y630759D01*
X1000080Y630761D01*
X999976Y630739D01*
X999871Y630722D01*
X999856Y630714D01*
X999839Y630710D01*
X999690Y630633D01*
X998384Y629760D01*
X990000Y628092D01*
X981616Y629760D01*
X980310Y630633D01*
X980294Y630640D01*
X980281Y630651D01*
X980182Y630691D01*
X980086Y630735D01*
X980069Y630737D01*
X980053Y630743D01*
X979887Y630761D01*
X966524Y630761D01*
X966434Y630747D01*
X966343Y630739D01*
X966313Y630727D01*
X966281Y630722D01*
X966200Y630679D01*
X966116Y630643D01*
X966084Y630617D01*
X966064Y630606D01*
X966041Y630583D01*
X965985Y630538D01*
X959367Y623920D01*
X956187Y620740D01*
X952173Y619077D01*
X891652Y619077D01*
X891582Y619066D01*
X891510Y619064D01*
X891461Y619046D01*
X891410Y619038D01*
X891346Y619004D01*
X891279Y618979D01*
X891238Y618947D01*
X891192Y618922D01*
X891143Y618870D01*
X891087Y618826D01*
X891059Y618782D01*
X891023Y618744D01*
X890993Y618679D01*
X890954Y618619D01*
X890941Y618568D01*
X890919Y618521D01*
X890911Y618450D01*
X890894Y618380D01*
X890898Y618328D01*
X890892Y618277D01*
X890907Y618206D01*
X890913Y618135D01*
X890933Y618087D01*
X890944Y618036D01*
X890981Y617975D01*
X891009Y617909D01*
X891054Y617853D01*
X891071Y617825D01*
X891088Y617810D01*
X891114Y617778D01*
X892006Y616886D01*
X895627Y610615D01*
X897501Y603621D01*
X897501Y596379D01*
X895627Y589385D01*
X892006Y583114D01*
X886886Y577994D01*
X880615Y574373D01*
X873621Y572499D01*
X866379Y572499D01*
X859385Y574373D01*
X853114Y577994D01*
X847994Y583114D01*
X844373Y589385D01*
X842499Y596379D01*
X842499Y603621D01*
X844373Y610615D01*
X847994Y616886D01*
X848886Y617778D01*
X848928Y617836D01*
X848977Y617888D01*
X848999Y617935D01*
X849029Y617977D01*
X849050Y618046D01*
X849081Y618111D01*
X849086Y618163D01*
X849102Y618213D01*
X849100Y618284D01*
X849108Y618355D01*
X849097Y618406D01*
X849095Y618458D01*
X849071Y618526D01*
X849056Y618596D01*
X849029Y618641D01*
X849011Y618689D01*
X848966Y618745D01*
X848929Y618807D01*
X848890Y618841D01*
X848857Y618881D01*
X848797Y618920D01*
X848742Y618967D01*
X848694Y618986D01*
X848650Y619014D01*
X848581Y619032D01*
X848514Y619059D01*
X848443Y619067D01*
X848412Y619075D01*
X848388Y619073D01*
X848348Y619077D01*
X461652Y619077D01*
X461582Y619066D01*
X461510Y619064D01*
X461461Y619046D01*
X461410Y619038D01*
X461346Y619004D01*
X461279Y618979D01*
X461238Y618947D01*
X461192Y618922D01*
X461143Y618870D01*
X461087Y618826D01*
X461059Y618782D01*
X461023Y618744D01*
X460993Y618679D01*
X460954Y618619D01*
X460941Y618568D01*
X460919Y618521D01*
X460911Y618450D01*
X460894Y618380D01*
X460898Y618328D01*
X460892Y618277D01*
X460907Y618206D01*
X460913Y618135D01*
X460933Y618087D01*
X460944Y618036D01*
X460981Y617975D01*
X461009Y617909D01*
X461054Y617853D01*
X461071Y617825D01*
X461088Y617810D01*
X461114Y617778D01*
X462006Y616886D01*
X465627Y610615D01*
X467501Y603621D01*
X467501Y596379D01*
X465627Y589385D01*
X462006Y583114D01*
X456886Y577994D01*
X450615Y574373D01*
X443621Y572499D01*
X436379Y572499D01*
X429385Y574373D01*
X423114Y577994D01*
X417994Y583114D01*
X414373Y589385D01*
X412499Y596379D01*
X412499Y603621D01*
X414373Y610615D01*
X417994Y616886D01*
X418886Y617778D01*
X418928Y617836D01*
X418977Y617888D01*
X418999Y617935D01*
X419029Y617977D01*
X419050Y618046D01*
X419081Y618111D01*
X419086Y618163D01*
X419102Y618213D01*
X419100Y618284D01*
X419108Y618355D01*
X419097Y618406D01*
X419095Y618458D01*
X419071Y618526D01*
X419056Y618596D01*
X419029Y618641D01*
X419011Y618689D01*
X418966Y618745D01*
X418929Y618807D01*
X418890Y618841D01*
X418857Y618881D01*
X418797Y618920D01*
X418742Y618967D01*
X418694Y618986D01*
X418650Y619014D01*
X418581Y619032D01*
X418514Y619059D01*
X418443Y619067D01*
X418412Y619075D01*
X418388Y619073D01*
X418348Y619077D01*
X84840Y619077D01*
X84750Y619063D01*
X84659Y619055D01*
X84629Y619043D01*
X84597Y619038D01*
X84516Y618995D01*
X84432Y618959D01*
X84400Y618933D01*
X84380Y618922D01*
X84357Y618899D01*
X84301Y618854D01*
X11146Y545699D01*
X11093Y545625D01*
X11033Y545555D01*
X11021Y545525D01*
X11002Y545499D01*
X10975Y545412D01*
X10941Y545327D01*
X10937Y545286D01*
X10930Y545264D01*
X10931Y545232D01*
X10923Y545160D01*
X10923Y454840D01*
X10937Y454750D01*
X10945Y454659D01*
X10957Y454629D01*
X10962Y454597D01*
X11005Y454516D01*
X11041Y454432D01*
X11067Y454400D01*
X11078Y454380D01*
X11101Y454357D01*
X11146Y454301D01*
X219260Y246187D01*
X220923Y242173D01*
X220923Y-5160D01*
X220937Y-5250D01*
X220945Y-5341D01*
X220957Y-5371D01*
X220962Y-5403D01*
X221005Y-5484D01*
X221041Y-5568D01*
X221067Y-5600D01*
X221078Y-5620D01*
X221101Y-5643D01*
X221146Y-5699D01*
X221746Y-6299D01*
X221785Y-6327D01*
X221818Y-6363D01*
X221885Y-6399D01*
X221946Y-6443D01*
X221992Y-6457D01*
X222034Y-6480D01*
X222109Y-6493D01*
X222181Y-6515D01*
X222229Y-6514D01*
X222276Y-6522D01*
X222351Y-6511D01*
X222427Y-6509D01*
X222472Y-6492D01*
X222520Y-6485D01*
X222587Y-6451D01*
X222658Y-6424D01*
X222696Y-6395D01*
X222738Y-6373D01*
X222791Y-6318D01*
X222850Y-6271D01*
X222876Y-6230D01*
X222910Y-6196D01*
X222942Y-6128D01*
X222983Y-6064D01*
X222995Y-6017D01*
X223016Y-5974D01*
X223025Y-5899D01*
X223043Y-5825D01*
X223040Y-5778D01*
X223045Y-5730D01*
X223026Y-5603D01*
X223024Y-5580D01*
X223022Y-5574D01*
X223020Y-5564D01*
X222499Y-3621D01*
X222499Y3621D01*
X224373Y10615D01*
X227994Y16886D01*
X233114Y22006D01*
X239385Y25627D01*
X246379Y27501D01*
X253621Y27501D01*
X260615Y25627D01*
X266886Y22006D01*
X272006Y16886D01*
X275627Y10615D01*
X277501Y3621D01*
X277501Y-3621D01*
X275627Y-10615D01*
X272006Y-16886D01*
X266886Y-22006D01*
X260615Y-25627D01*
X253621Y-27501D01*
X246379Y-27501D01*
X244436Y-26980D01*
X244388Y-26975D01*
X244342Y-26961D01*
X244267Y-26963D01*
X244191Y-26956D01*
X244144Y-26966D01*
X244096Y-26967D01*
X244025Y-26993D01*
X243951Y-27010D01*
X243910Y-27035D01*
X243865Y-27052D01*
X243806Y-27099D01*
X243742Y-27139D01*
X243711Y-27176D01*
X243673Y-27206D01*
X243632Y-27269D01*
X243584Y-27327D01*
X243566Y-27372D01*
X243540Y-27413D01*
X243522Y-27486D01*
X243494Y-27557D01*
X243492Y-27605D01*
X243480Y-27651D01*
X243486Y-27727D01*
X243483Y-27802D01*
X243496Y-27848D01*
X243499Y-27896D01*
X243529Y-27966D01*
X243550Y-28039D01*
X243577Y-28079D01*
X243596Y-28123D01*
X243676Y-28223D01*
X243689Y-28242D01*
X243694Y-28246D01*
X243701Y-28254D01*
X254301Y-38854D01*
X254375Y-38907D01*
X254445Y-38967D01*
X254475Y-38979D01*
X254501Y-38998D01*
X254588Y-39025D01*
X254673Y-39059D01*
X254714Y-39063D01*
X254736Y-39070D01*
X254768Y-39069D01*
X254840Y-39077D01*
X405674Y-39077D01*
X405745Y-39066D01*
G37*
%LPC*%
G36*
X528106Y405427D02*
X528106Y405427D01*
X525427Y408106D01*
X525427Y581894D01*
X528106Y584573D01*
X651894Y584573D01*
X654573Y581894D01*
X654573Y408106D01*
X651894Y405427D01*
X528106Y405427D01*
G37*
%LPD*%
G36*
X650026Y408480D02*
X650026Y408480D01*
X650052Y408478D01*
X650199Y408500D01*
X650346Y408517D01*
X650371Y408525D01*
X650397Y408529D01*
X650535Y408584D01*
X650674Y408634D01*
X650696Y408648D01*
X650721Y408658D01*
X650842Y408743D01*
X650967Y408823D01*
X650985Y408842D01*
X651007Y408857D01*
X651106Y408967D01*
X651209Y409074D01*
X651223Y409096D01*
X651240Y409116D01*
X651312Y409246D01*
X651388Y409373D01*
X651396Y409398D01*
X651409Y409421D01*
X651449Y409564D01*
X651494Y409705D01*
X651496Y409731D01*
X651504Y409756D01*
X651523Y410000D01*
X651523Y580000D01*
X651520Y580026D01*
X651522Y580052D01*
X651500Y580199D01*
X651483Y580346D01*
X651475Y580371D01*
X651471Y580397D01*
X651416Y580535D01*
X651366Y580674D01*
X651352Y580696D01*
X651342Y580721D01*
X651257Y580842D01*
X651177Y580967D01*
X651158Y580985D01*
X651143Y581007D01*
X651033Y581106D01*
X650926Y581209D01*
X650904Y581223D01*
X650884Y581240D01*
X650754Y581312D01*
X650627Y581388D01*
X650602Y581396D01*
X650579Y581409D01*
X650436Y581449D01*
X650295Y581494D01*
X650269Y581496D01*
X650244Y581504D01*
X650000Y581523D01*
X530000Y581523D01*
X529974Y581520D01*
X529948Y581522D01*
X529801Y581500D01*
X529654Y581483D01*
X529629Y581475D01*
X529603Y581471D01*
X529465Y581416D01*
X529326Y581366D01*
X529304Y581352D01*
X529279Y581342D01*
X529158Y581257D01*
X529033Y581177D01*
X529015Y581158D01*
X528993Y581143D01*
X528894Y581033D01*
X528791Y580926D01*
X528777Y580904D01*
X528760Y580884D01*
X528688Y580754D01*
X528612Y580627D01*
X528604Y580602D01*
X528591Y580579D01*
X528551Y580436D01*
X528506Y580295D01*
X528504Y580269D01*
X528496Y580244D01*
X528477Y580000D01*
X528477Y410000D01*
X528480Y409974D01*
X528478Y409948D01*
X528500Y409801D01*
X528517Y409654D01*
X528525Y409629D01*
X528529Y409603D01*
X528584Y409465D01*
X528634Y409326D01*
X528648Y409304D01*
X528658Y409279D01*
X528743Y409158D01*
X528823Y409033D01*
X528842Y409015D01*
X528857Y408993D01*
X528967Y408894D01*
X529074Y408791D01*
X529096Y408777D01*
X529116Y408760D01*
X529246Y408688D01*
X529373Y408612D01*
X529398Y408604D01*
X529421Y408591D01*
X529564Y408551D01*
X529705Y408506D01*
X529731Y408504D01*
X529756Y408496D01*
X530000Y408477D01*
X650000Y408477D01*
X650026Y408480D01*
G37*
%LPC*%
G36*
X358314Y418611D02*
X358314Y418611D01*
X352111Y424814D01*
X352111Y433586D01*
X358314Y439789D01*
X367086Y439789D01*
X372879Y433996D01*
X372953Y433943D01*
X373022Y433883D01*
X373053Y433871D01*
X373079Y433852D01*
X373166Y433825D01*
X373251Y433791D01*
X373292Y433787D01*
X373314Y433780D01*
X373346Y433781D01*
X373417Y433773D01*
X393991Y433773D01*
X394081Y433787D01*
X394172Y433795D01*
X394201Y433807D01*
X394233Y433812D01*
X394314Y433855D01*
X394398Y433891D01*
X394430Y433917D01*
X394451Y433928D01*
X394473Y433951D01*
X394529Y433996D01*
X405204Y444671D01*
X405257Y444745D01*
X405317Y444815D01*
X405329Y444845D01*
X405348Y444871D01*
X405375Y444958D01*
X405409Y445043D01*
X405413Y445084D01*
X405420Y445106D01*
X405419Y445138D01*
X405427Y445209D01*
X405427Y490132D01*
X405413Y490222D01*
X405405Y490313D01*
X405393Y490342D01*
X405388Y490374D01*
X405345Y490455D01*
X405309Y490539D01*
X405283Y490571D01*
X405272Y490592D01*
X405249Y490614D01*
X405204Y490670D01*
X404538Y491336D01*
X404522Y491348D01*
X404510Y491363D01*
X404422Y491419D01*
X404339Y491480D01*
X404320Y491485D01*
X404303Y491496D01*
X404202Y491521D01*
X404103Y491552D01*
X404084Y491551D01*
X404064Y491556D01*
X403961Y491548D01*
X403858Y491546D01*
X403839Y491539D01*
X403819Y491537D01*
X403724Y491497D01*
X403627Y491461D01*
X403611Y491449D01*
X403593Y491441D01*
X403462Y491336D01*
X402796Y490670D01*
X402742Y490596D01*
X402683Y490527D01*
X402671Y490496D01*
X402652Y490470D01*
X402625Y490383D01*
X402591Y490298D01*
X402587Y490257D01*
X402580Y490235D01*
X402581Y490203D01*
X402573Y490132D01*
X402573Y465106D01*
X387494Y450027D01*
X373417Y450027D01*
X373327Y450013D01*
X373236Y450005D01*
X373207Y449993D01*
X373175Y449988D01*
X373094Y449945D01*
X373010Y449909D01*
X372978Y449883D01*
X372957Y449872D01*
X372935Y449849D01*
X372879Y449804D01*
X367086Y444011D01*
X358314Y444011D01*
X352111Y450214D01*
X352111Y458986D01*
X358314Y465189D01*
X367086Y465189D01*
X372879Y459396D01*
X372953Y459343D01*
X373022Y459283D01*
X373053Y459271D01*
X373079Y459252D01*
X373166Y459225D01*
X373251Y459191D01*
X373292Y459187D01*
X373314Y459180D01*
X373346Y459181D01*
X373417Y459173D01*
X383391Y459173D01*
X383481Y459187D01*
X383572Y459195D01*
X383601Y459207D01*
X383633Y459212D01*
X383714Y459255D01*
X383798Y459291D01*
X383830Y459317D01*
X383851Y459328D01*
X383873Y459351D01*
X383929Y459396D01*
X393204Y468671D01*
X393257Y468745D01*
X393317Y468815D01*
X393329Y468845D01*
X393348Y468871D01*
X393375Y468958D01*
X393409Y469043D01*
X393413Y469084D01*
X393420Y469106D01*
X393419Y469138D01*
X393427Y469209D01*
X393427Y487890D01*
X393416Y487960D01*
X393414Y488032D01*
X393396Y488081D01*
X393388Y488132D01*
X393354Y488196D01*
X393329Y488263D01*
X393297Y488304D01*
X393272Y488350D01*
X393220Y488399D01*
X393176Y488455D01*
X393132Y488483D01*
X393094Y488519D01*
X393029Y488549D01*
X392969Y488588D01*
X392918Y488601D01*
X392871Y488623D01*
X392800Y488631D01*
X392730Y488648D01*
X392678Y488644D01*
X392627Y488650D01*
X392556Y488635D01*
X392485Y488629D01*
X392437Y488609D01*
X392386Y488598D01*
X392325Y488561D01*
X392259Y488533D01*
X392203Y488488D01*
X392175Y488472D01*
X392160Y488454D01*
X392128Y488428D01*
X390860Y487160D01*
X388339Y486116D01*
X385611Y486116D01*
X383090Y487160D01*
X382071Y488179D01*
X381997Y488232D01*
X381928Y488292D01*
X381897Y488304D01*
X381871Y488323D01*
X381784Y488350D01*
X381699Y488384D01*
X381658Y488388D01*
X381636Y488395D01*
X381604Y488394D01*
X381533Y488402D01*
X371110Y488402D01*
X371040Y488391D01*
X370968Y488389D01*
X370919Y488371D01*
X370867Y488363D01*
X370804Y488329D01*
X370737Y488304D01*
X370696Y488272D01*
X370650Y488247D01*
X370601Y488195D01*
X370545Y488151D01*
X370517Y488107D01*
X370481Y488069D01*
X370451Y488004D01*
X370412Y487944D01*
X370399Y487893D01*
X370377Y487846D01*
X370369Y487775D01*
X370352Y487705D01*
X370356Y487653D01*
X370350Y487602D01*
X370365Y487531D01*
X370371Y487460D01*
X370391Y487412D01*
X370402Y487361D01*
X370439Y487300D01*
X370467Y487234D01*
X370512Y487178D01*
X370528Y487150D01*
X370546Y487135D01*
X370572Y487103D01*
X373289Y484386D01*
X373289Y475614D01*
X367086Y469411D01*
X358314Y469411D01*
X352111Y475614D01*
X352111Y484386D01*
X354828Y487103D01*
X354870Y487161D01*
X354919Y487213D01*
X354941Y487260D01*
X354972Y487302D01*
X354993Y487371D01*
X355023Y487436D01*
X355029Y487488D01*
X355044Y487538D01*
X355042Y487609D01*
X355050Y487680D01*
X355039Y487731D01*
X355038Y487783D01*
X355013Y487851D01*
X354998Y487921D01*
X354971Y487966D01*
X354953Y488014D01*
X354908Y488070D01*
X354872Y488132D01*
X354832Y488166D01*
X354799Y488206D01*
X354739Y488245D01*
X354685Y488292D01*
X354636Y488311D01*
X354593Y488339D01*
X354523Y488357D01*
X354456Y488384D01*
X354385Y488392D01*
X354354Y488400D01*
X354331Y488398D01*
X354290Y488402D01*
X347831Y488402D01*
X341645Y494588D01*
X341571Y494641D01*
X341501Y494701D01*
X341471Y494713D01*
X341445Y494732D01*
X341358Y494759D01*
X341273Y494793D01*
X341232Y494797D01*
X341210Y494804D01*
X341178Y494803D01*
X341107Y494811D01*
X332914Y494811D01*
X326711Y501014D01*
X326711Y509786D01*
X332914Y515989D01*
X341686Y515989D01*
X347889Y509786D01*
X347889Y501593D01*
X347903Y501503D01*
X347911Y501412D01*
X347923Y501383D01*
X347928Y501351D01*
X347971Y501270D01*
X348007Y501186D01*
X348033Y501154D01*
X348044Y501133D01*
X348067Y501111D01*
X348112Y501055D01*
X351396Y497771D01*
X351470Y497718D01*
X351540Y497658D01*
X351570Y497646D01*
X351596Y497627D01*
X351683Y497600D01*
X351768Y497566D01*
X351809Y497562D01*
X351831Y497555D01*
X351863Y497556D01*
X351934Y497548D01*
X353740Y497548D01*
X353810Y497559D01*
X353882Y497561D01*
X353931Y497579D01*
X353983Y497587D01*
X354046Y497621D01*
X354113Y497646D01*
X354154Y497678D01*
X354200Y497703D01*
X354249Y497755D01*
X354305Y497799D01*
X354333Y497843D01*
X354369Y497881D01*
X354399Y497946D01*
X354438Y498006D01*
X354451Y498057D01*
X354473Y498104D01*
X354481Y498175D01*
X354498Y498245D01*
X354494Y498297D01*
X354500Y498348D01*
X354485Y498419D01*
X354479Y498490D01*
X354459Y498538D01*
X354448Y498589D01*
X354411Y498650D01*
X354383Y498716D01*
X354338Y498772D01*
X354322Y498800D01*
X354304Y498815D01*
X354278Y498847D01*
X352111Y501014D01*
X352111Y509786D01*
X358314Y515989D01*
X367086Y515989D01*
X373289Y509786D01*
X373289Y501014D01*
X371122Y498847D01*
X371080Y498789D01*
X371031Y498737D01*
X371009Y498690D01*
X370978Y498648D01*
X370957Y498579D01*
X370927Y498514D01*
X370921Y498462D01*
X370906Y498412D01*
X370908Y498341D01*
X370900Y498270D01*
X370911Y498219D01*
X370912Y498167D01*
X370937Y498099D01*
X370952Y498029D01*
X370979Y497984D01*
X370997Y497936D01*
X371042Y497880D01*
X371078Y497818D01*
X371118Y497784D01*
X371151Y497744D01*
X371211Y497705D01*
X371265Y497658D01*
X371314Y497639D01*
X371357Y497611D01*
X371427Y497593D01*
X371494Y497566D01*
X371565Y497558D01*
X371596Y497550D01*
X371619Y497552D01*
X371660Y497548D01*
X381533Y497548D01*
X381623Y497562D01*
X381714Y497570D01*
X381743Y497582D01*
X381775Y497587D01*
X381856Y497630D01*
X381940Y497666D01*
X381972Y497692D01*
X381993Y497703D01*
X382015Y497726D01*
X382071Y497771D01*
X383090Y498790D01*
X385611Y499834D01*
X388339Y499834D01*
X390905Y498771D01*
X390932Y498756D01*
X390995Y498711D01*
X391039Y498697D01*
X391079Y498675D01*
X391156Y498661D01*
X391230Y498638D01*
X391276Y498639D01*
X391321Y498631D01*
X391399Y498643D01*
X391476Y498645D01*
X391519Y498660D01*
X391565Y498667D01*
X391634Y498702D01*
X391707Y498729D01*
X391743Y498758D01*
X391784Y498779D01*
X391839Y498834D01*
X391899Y498883D01*
X391924Y498921D01*
X391956Y498954D01*
X392022Y499074D01*
X392032Y499090D01*
X392034Y499095D01*
X392037Y499101D01*
X392185Y499459D01*
X394115Y501389D01*
X396636Y502433D01*
X399364Y502433D01*
X401885Y501389D01*
X403462Y499812D01*
X403478Y499800D01*
X403490Y499785D01*
X403578Y499729D01*
X403661Y499668D01*
X403680Y499663D01*
X403697Y499652D01*
X403798Y499627D01*
X403897Y499596D01*
X403916Y499597D01*
X403936Y499592D01*
X404039Y499600D01*
X404142Y499602D01*
X404161Y499609D01*
X404181Y499611D01*
X404276Y499651D01*
X404373Y499687D01*
X404389Y499699D01*
X404407Y499707D01*
X404538Y499812D01*
X406115Y501389D01*
X408636Y502433D01*
X411364Y502433D01*
X413885Y501389D01*
X415815Y499459D01*
X416859Y496938D01*
X416859Y494210D01*
X415815Y491689D01*
X414796Y490670D01*
X414743Y490596D01*
X414683Y490527D01*
X414671Y490496D01*
X414652Y490470D01*
X414625Y490383D01*
X414591Y490298D01*
X414587Y490257D01*
X414580Y490235D01*
X414581Y490203D01*
X414573Y490132D01*
X414573Y441106D01*
X398094Y424627D01*
X373417Y424627D01*
X373327Y424613D01*
X373236Y424605D01*
X373207Y424593D01*
X373175Y424588D01*
X373094Y424545D01*
X373010Y424509D01*
X372978Y424483D01*
X372957Y424472D01*
X372935Y424449D01*
X372879Y424404D01*
X367086Y418611D01*
X358314Y418611D01*
G37*
%LPD*%
%LPC*%
G36*
X586050Y513999D02*
X586050Y513999D01*
X578420Y516044D01*
X571579Y519993D01*
X565993Y525579D01*
X562044Y532420D01*
X559999Y540050D01*
X559999Y547950D01*
X562044Y555580D01*
X565993Y562421D01*
X571579Y568007D01*
X578420Y571956D01*
X586050Y574001D01*
X593950Y574001D01*
X601580Y571956D01*
X608421Y568007D01*
X614007Y562421D01*
X617956Y555580D01*
X620001Y547950D01*
X620001Y540050D01*
X617956Y532420D01*
X614007Y525579D01*
X608421Y519993D01*
X601580Y516044D01*
X593950Y513999D01*
X586050Y513999D01*
G37*
%LPD*%
%LPC*%
G36*
X628484Y322379D02*
X628484Y322379D01*
X625683Y323539D01*
X624018Y325204D01*
X623944Y325257D01*
X623875Y325317D01*
X623845Y325329D01*
X623819Y325348D01*
X623732Y325375D01*
X623647Y325409D01*
X623606Y325413D01*
X623584Y325420D01*
X623551Y325419D01*
X623480Y325427D01*
X613806Y325427D01*
X598659Y340574D01*
X598643Y340586D01*
X598630Y340602D01*
X598562Y340645D01*
X598526Y340676D01*
X598506Y340684D01*
X598459Y340718D01*
X598440Y340724D01*
X598423Y340735D01*
X598323Y340760D01*
X598304Y340766D01*
X598298Y340768D01*
X598295Y340768D01*
X598224Y340790D01*
X598204Y340790D01*
X598185Y340795D01*
X598082Y340787D01*
X597978Y340784D01*
X597959Y340777D01*
X597940Y340775D01*
X597875Y340748D01*
X597867Y340747D01*
X597846Y340736D01*
X597845Y340735D01*
X597747Y340699D01*
X597731Y340687D01*
X597713Y340679D01*
X597662Y340638D01*
X597650Y340632D01*
X597636Y340617D01*
X597582Y340574D01*
X596043Y339035D01*
X592122Y337411D01*
X587878Y337411D01*
X583957Y339035D01*
X580955Y342037D01*
X579331Y345958D01*
X579331Y365442D01*
X580955Y369363D01*
X583957Y372365D01*
X587878Y373989D01*
X592122Y373989D01*
X596043Y372365D01*
X599045Y369363D01*
X600669Y365442D01*
X600669Y351813D01*
X600683Y351723D01*
X600691Y351632D01*
X600703Y351603D01*
X600708Y351571D01*
X600751Y351490D01*
X600787Y351406D01*
X600813Y351374D01*
X600824Y351353D01*
X600847Y351331D01*
X600892Y351275D01*
X603432Y348735D01*
X603490Y348693D01*
X603542Y348644D01*
X603589Y348622D01*
X603631Y348592D01*
X603700Y348570D01*
X603765Y348540D01*
X603817Y348534D01*
X603867Y348519D01*
X603938Y348521D01*
X604009Y348513D01*
X604060Y348524D01*
X604112Y348526D01*
X604180Y348550D01*
X604250Y348565D01*
X604294Y348592D01*
X604343Y348610D01*
X604399Y348655D01*
X604461Y348692D01*
X604495Y348731D01*
X604535Y348764D01*
X604574Y348824D01*
X604621Y348878D01*
X604640Y348927D01*
X604668Y348971D01*
X604686Y349040D01*
X604713Y349107D01*
X604721Y349178D01*
X604729Y349209D01*
X604727Y349232D01*
X604731Y349273D01*
X604731Y365442D01*
X606355Y369363D01*
X609357Y372365D01*
X613278Y373989D01*
X617522Y373989D01*
X621443Y372365D01*
X624445Y369363D01*
X626069Y365442D01*
X626069Y345958D01*
X624445Y342037D01*
X621443Y339035D01*
X617522Y337411D01*
X616593Y337411D01*
X616523Y337400D01*
X616451Y337398D01*
X616402Y337380D01*
X616351Y337372D01*
X616287Y337338D01*
X616220Y337313D01*
X616179Y337281D01*
X616133Y337256D01*
X616084Y337204D01*
X616028Y337160D01*
X616000Y337116D01*
X615964Y337078D01*
X615934Y337013D01*
X615895Y336953D01*
X615882Y336902D01*
X615860Y336855D01*
X615852Y336784D01*
X615835Y336714D01*
X615839Y336662D01*
X615833Y336611D01*
X615848Y336540D01*
X615854Y336469D01*
X615874Y336421D01*
X615885Y336370D01*
X615922Y336309D01*
X615950Y336243D01*
X615995Y336187D01*
X616012Y336159D01*
X616029Y336144D01*
X616055Y336112D01*
X617371Y334796D01*
X617445Y334743D01*
X617515Y334683D01*
X617545Y334671D01*
X617571Y334652D01*
X617658Y334625D01*
X617743Y334591D01*
X617784Y334587D01*
X617806Y334580D01*
X617838Y334581D01*
X617909Y334573D01*
X623480Y334573D01*
X623570Y334587D01*
X623661Y334595D01*
X623691Y334607D01*
X623723Y334612D01*
X623804Y334655D01*
X623887Y334691D01*
X623920Y334717D01*
X623940Y334728D01*
X623962Y334751D01*
X624018Y334796D01*
X625683Y336461D01*
X628484Y337621D01*
X631516Y337621D01*
X634317Y336461D01*
X636461Y334317D01*
X637621Y331516D01*
X637621Y328484D01*
X636461Y325683D01*
X634317Y323539D01*
X631516Y322379D01*
X628484Y322379D01*
G37*
%LPD*%
%LPC*%
G36*
X840294Y66339D02*
X840294Y66339D01*
X831597Y69941D01*
X824941Y76597D01*
X821339Y85294D01*
X821339Y94706D01*
X824941Y103403D01*
X831597Y110059D01*
X840294Y113661D01*
X849706Y113661D01*
X858403Y110059D01*
X865059Y103403D01*
X868661Y94706D01*
X868661Y85294D01*
X865059Y76597D01*
X858403Y69941D01*
X849706Y66339D01*
X840294Y66339D01*
G37*
%LPD*%
%LPC*%
G36*
X730294Y66339D02*
X730294Y66339D01*
X721597Y69941D01*
X714941Y76597D01*
X711339Y85294D01*
X711339Y94706D01*
X714941Y103403D01*
X721597Y110059D01*
X730294Y113661D01*
X739706Y113661D01*
X748403Y110059D01*
X755059Y103403D01*
X758661Y94706D01*
X758661Y85294D01*
X755059Y76597D01*
X748403Y69941D01*
X739706Y66339D01*
X730294Y66339D01*
G37*
%LPD*%
%LPC*%
G36*
X461616Y289760D02*
X461616Y289760D01*
X454509Y294509D01*
X449760Y301616D01*
X448092Y310000D01*
X449760Y318384D01*
X454509Y325491D01*
X461616Y330240D01*
X470000Y331908D01*
X478384Y330240D01*
X485491Y325491D01*
X490240Y318384D01*
X491908Y310000D01*
X490240Y301616D01*
X485491Y294509D01*
X478384Y289760D01*
X470000Y288092D01*
X461616Y289760D01*
G37*
%LPD*%
%LPC*%
G36*
X248603Y49951D02*
X248603Y49951D01*
X244175Y51786D01*
X240786Y55175D01*
X238951Y59603D01*
X238951Y64397D01*
X240786Y68825D01*
X244175Y72214D01*
X248603Y74049D01*
X271397Y74049D01*
X275825Y72214D01*
X279214Y68825D01*
X281049Y64397D01*
X281049Y59603D01*
X279214Y55175D01*
X275825Y51786D01*
X271397Y49951D01*
X248603Y49951D01*
G37*
%LPD*%
%LPC*%
G36*
X516175Y113106D02*
X516175Y113106D01*
X511764Y114933D01*
X508388Y118309D01*
X506560Y122721D01*
X506560Y127495D01*
X508388Y131907D01*
X511764Y135283D01*
X516175Y137110D01*
X538857Y137110D01*
X543268Y135283D01*
X546644Y131907D01*
X548472Y127495D01*
X548472Y122721D01*
X546644Y118309D01*
X543268Y114933D01*
X538857Y113106D01*
X516175Y113106D01*
G37*
%LPD*%
%LPC*%
G36*
X641143Y162890D02*
X641143Y162890D01*
X636732Y164717D01*
X633356Y168093D01*
X631528Y172505D01*
X631528Y177279D01*
X633356Y181691D01*
X636732Y185067D01*
X641143Y186894D01*
X663825Y186894D01*
X668236Y185067D01*
X671612Y181691D01*
X673440Y177279D01*
X673440Y172505D01*
X671612Y168093D01*
X668236Y164717D01*
X663825Y162890D01*
X641143Y162890D01*
G37*
%LPD*%
%LPC*%
G36*
X641143Y113106D02*
X641143Y113106D01*
X636732Y114933D01*
X633356Y118309D01*
X631528Y122721D01*
X631528Y127495D01*
X633356Y131907D01*
X636732Y135283D01*
X641143Y137110D01*
X663825Y137110D01*
X668236Y135283D01*
X671612Y131907D01*
X673440Y127495D01*
X673440Y122721D01*
X671612Y118309D01*
X668236Y114933D01*
X663825Y113106D01*
X641143Y113106D01*
G37*
%LPD*%
%LPC*%
G36*
X516175Y162890D02*
X516175Y162890D01*
X511764Y164717D01*
X508388Y168093D01*
X506560Y172505D01*
X506560Y177279D01*
X508388Y181691D01*
X511764Y185067D01*
X516175Y186894D01*
X538857Y186894D01*
X543268Y185067D01*
X546644Y181691D01*
X548472Y177279D01*
X548472Y172505D01*
X546644Y168093D01*
X543268Y164717D01*
X538857Y162890D01*
X516175Y162890D01*
G37*
%LPD*%
%LPC*%
G36*
X106985Y411861D02*
X106985Y411861D01*
X102597Y413679D01*
X99239Y417037D01*
X97421Y421425D01*
X97421Y426175D01*
X99239Y430563D01*
X102597Y433921D01*
X106985Y435739D01*
X129515Y435739D01*
X133903Y433921D01*
X137261Y430563D01*
X139079Y426175D01*
X139079Y421425D01*
X137261Y417037D01*
X133903Y413679D01*
X129515Y411861D01*
X106985Y411861D01*
G37*
%LPD*%
%LPC*%
G36*
X986985Y411861D02*
X986985Y411861D01*
X982597Y413679D01*
X979239Y417037D01*
X977421Y421425D01*
X977421Y426175D01*
X979239Y430563D01*
X982597Y433921D01*
X986985Y435739D01*
X1009515Y435739D01*
X1013903Y433921D01*
X1017261Y430563D01*
X1019079Y426175D01*
X1019079Y421425D01*
X1017261Y417037D01*
X1013903Y413679D01*
X1009515Y411861D01*
X986985Y411861D01*
G37*
%LPD*%
%LPC*%
G36*
X106985Y366861D02*
X106985Y366861D01*
X102597Y368679D01*
X99239Y372037D01*
X97421Y376425D01*
X97421Y381175D01*
X99239Y385563D01*
X102597Y388921D01*
X106985Y390739D01*
X129515Y390739D01*
X133903Y388921D01*
X137261Y385563D01*
X139079Y381175D01*
X139079Y376425D01*
X137261Y372037D01*
X133903Y368679D01*
X129515Y366861D01*
X106985Y366861D01*
G37*
%LPD*%
%LPC*%
G36*
X1050485Y366861D02*
X1050485Y366861D01*
X1046097Y368679D01*
X1042739Y372037D01*
X1040921Y376425D01*
X1040921Y381175D01*
X1042739Y385563D01*
X1046097Y388921D01*
X1050485Y390739D01*
X1073015Y390739D01*
X1077403Y388921D01*
X1080761Y385563D01*
X1082579Y381175D01*
X1082579Y376425D01*
X1080761Y372037D01*
X1077403Y368679D01*
X1073015Y366861D01*
X1050485Y366861D01*
G37*
%LPD*%
%LPC*%
G36*
X170485Y366861D02*
X170485Y366861D01*
X166097Y368679D01*
X162739Y372037D01*
X160921Y376425D01*
X160921Y381175D01*
X162739Y385563D01*
X166097Y388921D01*
X170485Y390739D01*
X193015Y390739D01*
X197403Y388921D01*
X200761Y385563D01*
X202579Y381175D01*
X202579Y376425D01*
X200761Y372037D01*
X197403Y368679D01*
X193015Y366861D01*
X170485Y366861D01*
G37*
%LPD*%
%LPC*%
G36*
X986985Y366861D02*
X986985Y366861D01*
X982597Y368679D01*
X979239Y372037D01*
X977421Y376425D01*
X977421Y381175D01*
X979239Y385563D01*
X982597Y388921D01*
X986985Y390739D01*
X1009515Y390739D01*
X1013903Y388921D01*
X1017261Y385563D01*
X1019079Y381175D01*
X1019079Y376425D01*
X1017261Y372037D01*
X1013903Y368679D01*
X1009515Y366861D01*
X986985Y366861D01*
G37*
%LPD*%
%LPC*%
G36*
X223067Y417576D02*
X223067Y417576D01*
X217279Y419974D01*
X212849Y424404D01*
X210451Y430192D01*
X210451Y436458D01*
X212849Y442246D01*
X217279Y446676D01*
X223067Y449074D01*
X229333Y449074D01*
X235121Y446676D01*
X239551Y442246D01*
X241949Y436458D01*
X241949Y430192D01*
X239551Y424404D01*
X235121Y419974D01*
X229333Y417576D01*
X223067Y417576D01*
G37*
%LPD*%
%LPC*%
G36*
X1103067Y550926D02*
X1103067Y550926D01*
X1097279Y553324D01*
X1092849Y557754D01*
X1090451Y563542D01*
X1090451Y569808D01*
X1092849Y575596D01*
X1097279Y580026D01*
X1103067Y582424D01*
X1109333Y582424D01*
X1115121Y580026D01*
X1119551Y575596D01*
X1121949Y569808D01*
X1121949Y563542D01*
X1119551Y557754D01*
X1115121Y553324D01*
X1109333Y550926D01*
X1103067Y550926D01*
G37*
%LPD*%
%LPC*%
G36*
X950667Y550926D02*
X950667Y550926D01*
X944879Y553324D01*
X940449Y557754D01*
X938051Y563542D01*
X938051Y569808D01*
X940449Y575596D01*
X944879Y580026D01*
X950667Y582424D01*
X956933Y582424D01*
X962721Y580026D01*
X967151Y575596D01*
X969549Y569808D01*
X969549Y563542D01*
X967151Y557754D01*
X962721Y553324D01*
X956933Y550926D01*
X950667Y550926D01*
G37*
%LPD*%
%LPC*%
G36*
X223067Y550926D02*
X223067Y550926D01*
X217279Y553324D01*
X212849Y557754D01*
X210451Y563542D01*
X210451Y569808D01*
X212849Y575596D01*
X217279Y580026D01*
X223067Y582424D01*
X229333Y582424D01*
X235121Y580026D01*
X239551Y575596D01*
X241949Y569808D01*
X241949Y563542D01*
X239551Y557754D01*
X235121Y553324D01*
X229333Y550926D01*
X223067Y550926D01*
G37*
%LPD*%
%LPC*%
G36*
X70667Y550926D02*
X70667Y550926D01*
X64879Y553324D01*
X60449Y557754D01*
X58051Y563542D01*
X58051Y569808D01*
X60449Y575596D01*
X64879Y580026D01*
X70667Y582424D01*
X76933Y582424D01*
X82721Y580026D01*
X87151Y575596D01*
X89549Y569808D01*
X89549Y563542D01*
X87151Y557754D01*
X82721Y553324D01*
X76933Y550926D01*
X70667Y550926D01*
G37*
%LPD*%
%LPC*%
G36*
X1103067Y417576D02*
X1103067Y417576D01*
X1097279Y419974D01*
X1092849Y424404D01*
X1090451Y430192D01*
X1090451Y436458D01*
X1092849Y442246D01*
X1097279Y446676D01*
X1103067Y449074D01*
X1109333Y449074D01*
X1115121Y446676D01*
X1119551Y442246D01*
X1121949Y436458D01*
X1121949Y430192D01*
X1119551Y424404D01*
X1115121Y419974D01*
X1109333Y417576D01*
X1103067Y417576D01*
G37*
%LPD*%
%LPC*%
G36*
X950667Y417576D02*
X950667Y417576D01*
X944879Y419974D01*
X940449Y424404D01*
X938051Y430192D01*
X938051Y436458D01*
X940449Y442246D01*
X944879Y446676D01*
X950667Y449074D01*
X956933Y449074D01*
X962721Y446676D01*
X967151Y442246D01*
X969549Y436458D01*
X969549Y430192D01*
X967151Y424404D01*
X962721Y419974D01*
X956933Y417576D01*
X950667Y417576D01*
G37*
%LPD*%
%LPC*%
G36*
X70667Y417576D02*
X70667Y417576D01*
X64879Y419974D01*
X60449Y424404D01*
X58051Y430192D01*
X58051Y436458D01*
X60449Y442246D01*
X64879Y446676D01*
X70667Y449074D01*
X76933Y449074D01*
X82721Y446676D01*
X87151Y442246D01*
X89549Y436458D01*
X89549Y430192D01*
X87151Y424404D01*
X82721Y419974D01*
X76933Y417576D01*
X70667Y417576D01*
G37*
%LPD*%
%LPC*%
G36*
X562478Y337411D02*
X562478Y337411D01*
X558557Y339035D01*
X555555Y342037D01*
X553931Y345958D01*
X553931Y365442D01*
X555555Y369363D01*
X558557Y372365D01*
X562478Y373989D01*
X566722Y373989D01*
X570643Y372365D01*
X573645Y369363D01*
X575269Y365442D01*
X575269Y345958D01*
X573645Y342037D01*
X570643Y339035D01*
X566722Y337411D01*
X562478Y337411D01*
G37*
%LPD*%
%LPC*%
G36*
X646674Y342299D02*
X646674Y342299D01*
X642006Y344233D01*
X638433Y347806D01*
X636499Y352474D01*
X636499Y357526D01*
X638433Y362194D01*
X642006Y365767D01*
X646674Y367701D01*
X651726Y367701D01*
X656394Y365767D01*
X659967Y362194D01*
X661901Y357526D01*
X661901Y352474D01*
X659967Y347806D01*
X656394Y344233D01*
X651726Y342299D01*
X646674Y342299D01*
G37*
%LPD*%
%LPC*%
G36*
X687474Y128099D02*
X687474Y128099D01*
X682806Y130033D01*
X679233Y133606D01*
X677299Y138274D01*
X677299Y143326D01*
X679233Y147994D01*
X682806Y151567D01*
X687474Y153501D01*
X692526Y153501D01*
X697194Y151567D01*
X700767Y147994D01*
X702701Y143326D01*
X702701Y138274D01*
X700767Y133606D01*
X697194Y130033D01*
X692526Y128099D01*
X687474Y128099D01*
G37*
%LPD*%
%LPC*%
G36*
X748274Y342299D02*
X748274Y342299D01*
X743606Y344233D01*
X740033Y347806D01*
X738099Y352474D01*
X738099Y357526D01*
X740033Y362194D01*
X743606Y365767D01*
X748274Y367701D01*
X753326Y367701D01*
X757994Y365767D01*
X761567Y362194D01*
X763501Y357526D01*
X763501Y352474D01*
X761567Y347806D01*
X757994Y344233D01*
X753326Y342299D01*
X748274Y342299D01*
G37*
%LPD*%
%LPC*%
G36*
X687474Y26499D02*
X687474Y26499D01*
X682806Y28433D01*
X679233Y32006D01*
X677299Y36674D01*
X677299Y41726D01*
X679233Y46394D01*
X682806Y49967D01*
X687474Y51901D01*
X692526Y51901D01*
X697194Y49967D01*
X700767Y46394D01*
X702701Y41726D01*
X702701Y36674D01*
X700767Y32006D01*
X697194Y28433D01*
X692526Y26499D01*
X687474Y26499D01*
G37*
%LPD*%
%LPC*%
G36*
X619999Y289839D02*
X619999Y289839D01*
X619999Y290602D01*
X619996Y290622D01*
X619998Y290641D01*
X619976Y290743D01*
X619959Y290845D01*
X619950Y290862D01*
X619946Y290882D01*
X619893Y290971D01*
X619844Y291062D01*
X619830Y291076D01*
X619820Y291093D01*
X619741Y291160D01*
X619666Y291231D01*
X619648Y291240D01*
X619633Y291253D01*
X619537Y291292D01*
X619443Y291335D01*
X619423Y291337D01*
X619405Y291345D01*
X619238Y291363D01*
X609959Y291363D01*
X609959Y293999D01*
X615448Y299488D01*
X615475Y299525D01*
X615509Y299557D01*
X615547Y299625D01*
X615592Y299688D01*
X615605Y299732D01*
X615628Y299772D01*
X615641Y299849D01*
X615664Y299923D01*
X615663Y299969D01*
X615671Y300014D01*
X615660Y300091D01*
X615658Y300169D01*
X615642Y300212D01*
X615636Y300257D01*
X615600Y300327D01*
X615574Y300400D01*
X615545Y300436D01*
X615524Y300477D01*
X615468Y300531D01*
X615420Y300592D01*
X615381Y300617D01*
X615348Y300649D01*
X615229Y300715D01*
X615213Y300725D01*
X615208Y300726D01*
X615201Y300730D01*
X614025Y301217D01*
X611057Y304185D01*
X609451Y308062D01*
X609451Y312258D01*
X611057Y316135D01*
X614025Y319103D01*
X617902Y320709D01*
X622098Y320709D01*
X625975Y319103D01*
X628943Y316135D01*
X630549Y312258D01*
X630549Y308062D01*
X628943Y304185D01*
X625975Y301217D01*
X624799Y300730D01*
X624759Y300706D01*
X624716Y300690D01*
X624656Y300641D01*
X624589Y300600D01*
X624560Y300565D01*
X624524Y300536D01*
X624482Y300471D01*
X624433Y300411D01*
X624416Y300368D01*
X624391Y300329D01*
X624372Y300254D01*
X624344Y300181D01*
X624343Y300135D01*
X624331Y300091D01*
X624337Y300013D01*
X624334Y299935D01*
X624347Y299891D01*
X624350Y299845D01*
X624381Y299774D01*
X624403Y299699D01*
X624429Y299661D01*
X624447Y299619D01*
X624532Y299512D01*
X624543Y299497D01*
X624547Y299494D01*
X624552Y299488D01*
X630041Y293999D01*
X630041Y291363D01*
X620762Y291363D01*
X620742Y291360D01*
X620723Y291362D01*
X620621Y291340D01*
X620519Y291323D01*
X620502Y291314D01*
X620482Y291310D01*
X620393Y291257D01*
X620302Y291208D01*
X620288Y291194D01*
X620271Y291184D01*
X620204Y291105D01*
X620133Y291030D01*
X620124Y291012D01*
X620111Y290997D01*
X620073Y290901D01*
X620029Y290807D01*
X620027Y290787D01*
X620019Y290769D01*
X620001Y290602D01*
X620001Y289839D01*
X619999Y289839D01*
G37*
%LPD*%
%LPC*%
G36*
X559999Y289839D02*
X559999Y289839D01*
X559999Y290602D01*
X559996Y290622D01*
X559998Y290641D01*
X559976Y290743D01*
X559959Y290845D01*
X559950Y290862D01*
X559946Y290882D01*
X559893Y290971D01*
X559844Y291062D01*
X559830Y291076D01*
X559820Y291093D01*
X559741Y291160D01*
X559666Y291231D01*
X559648Y291240D01*
X559633Y291253D01*
X559537Y291292D01*
X559443Y291335D01*
X559423Y291337D01*
X559405Y291345D01*
X559238Y291363D01*
X549959Y291363D01*
X549959Y293999D01*
X555448Y299488D01*
X555475Y299525D01*
X555509Y299557D01*
X555547Y299625D01*
X555592Y299688D01*
X555605Y299732D01*
X555628Y299772D01*
X555641Y299849D01*
X555664Y299923D01*
X555663Y299969D01*
X555671Y300014D01*
X555660Y300091D01*
X555658Y300169D01*
X555642Y300212D01*
X555636Y300257D01*
X555600Y300327D01*
X555574Y300400D01*
X555545Y300436D01*
X555524Y300477D01*
X555468Y300531D01*
X555420Y300592D01*
X555381Y300617D01*
X555348Y300649D01*
X555229Y300715D01*
X555213Y300725D01*
X555208Y300726D01*
X555201Y300730D01*
X554025Y301217D01*
X551057Y304185D01*
X549451Y308062D01*
X549451Y312258D01*
X551057Y316135D01*
X554025Y319103D01*
X557902Y320709D01*
X562098Y320709D01*
X565975Y319103D01*
X568943Y316135D01*
X570549Y312258D01*
X570549Y308062D01*
X568943Y304185D01*
X565975Y301217D01*
X564799Y300730D01*
X564759Y300706D01*
X564716Y300690D01*
X564656Y300641D01*
X564589Y300600D01*
X564560Y300565D01*
X564524Y300536D01*
X564482Y300471D01*
X564433Y300411D01*
X564416Y300368D01*
X564391Y300329D01*
X564372Y300254D01*
X564344Y300181D01*
X564343Y300135D01*
X564331Y300091D01*
X564337Y300013D01*
X564334Y299935D01*
X564347Y299891D01*
X564350Y299845D01*
X564381Y299774D01*
X564403Y299699D01*
X564429Y299661D01*
X564447Y299619D01*
X564532Y299512D01*
X564543Y299497D01*
X564547Y299494D01*
X564552Y299488D01*
X570041Y293999D01*
X570041Y291363D01*
X560762Y291363D01*
X560742Y291360D01*
X560723Y291362D01*
X560621Y291340D01*
X560519Y291323D01*
X560502Y291314D01*
X560482Y291310D01*
X560393Y291257D01*
X560302Y291208D01*
X560288Y291194D01*
X560271Y291184D01*
X560204Y291105D01*
X560133Y291030D01*
X560124Y291012D01*
X560111Y290997D01*
X560073Y290901D01*
X560029Y290807D01*
X560027Y290787D01*
X560019Y290769D01*
X560001Y290602D01*
X560001Y289839D01*
X559999Y289839D01*
G37*
%LPD*%
%LPC*%
G36*
X1053025Y589661D02*
X1053025Y589661D01*
X1048637Y591479D01*
X1045279Y594837D01*
X1043461Y599225D01*
X1043461Y603975D01*
X1045279Y608363D01*
X1048637Y611721D01*
X1053025Y613539D01*
X1057775Y613539D01*
X1062163Y611721D01*
X1065521Y608363D01*
X1067339Y603975D01*
X1067339Y599225D01*
X1065521Y594837D01*
X1062163Y591479D01*
X1057775Y589661D01*
X1053025Y589661D01*
G37*
%LPD*%
%LPC*%
G36*
X173025Y589661D02*
X173025Y589661D01*
X168637Y591479D01*
X165279Y594837D01*
X163461Y599225D01*
X163461Y603975D01*
X165279Y608363D01*
X168637Y611721D01*
X173025Y613539D01*
X177775Y613539D01*
X182163Y611721D01*
X185521Y608363D01*
X187339Y603975D01*
X187339Y599225D01*
X185521Y594837D01*
X182163Y591479D01*
X177775Y589661D01*
X173025Y589661D01*
G37*
%LPD*%
%LPC*%
G36*
X249225Y488061D02*
X249225Y488061D01*
X244837Y489879D01*
X241479Y493237D01*
X239661Y497625D01*
X239661Y502375D01*
X241479Y506763D01*
X244837Y510121D01*
X249225Y511939D01*
X253975Y511939D01*
X258363Y510121D01*
X261721Y506763D01*
X263539Y502375D01*
X263539Y497625D01*
X261721Y493237D01*
X258363Y489879D01*
X253975Y488061D01*
X249225Y488061D01*
G37*
%LPD*%
%LPC*%
G36*
X1027625Y589661D02*
X1027625Y589661D01*
X1023237Y591479D01*
X1019879Y594837D01*
X1018061Y599225D01*
X1018061Y603975D01*
X1019879Y608363D01*
X1023237Y611721D01*
X1027625Y613539D01*
X1032375Y613539D01*
X1036763Y611721D01*
X1040121Y608363D01*
X1041939Y603975D01*
X1041939Y599225D01*
X1040121Y594837D01*
X1036763Y591479D01*
X1032375Y589661D01*
X1027625Y589661D01*
G37*
%LPD*%
%LPC*%
G36*
X147625Y589661D02*
X147625Y589661D01*
X143237Y591479D01*
X139879Y594837D01*
X138061Y599225D01*
X138061Y603975D01*
X139879Y608363D01*
X143237Y611721D01*
X147625Y613539D01*
X152375Y613539D01*
X156763Y611721D01*
X160121Y608363D01*
X161939Y603975D01*
X161939Y599225D01*
X160121Y594837D01*
X156763Y591479D01*
X152375Y589661D01*
X147625Y589661D01*
G37*
%LPD*%
%LPC*%
G36*
X249225Y462661D02*
X249225Y462661D01*
X244837Y464479D01*
X241479Y467837D01*
X239661Y472225D01*
X239661Y476975D01*
X241479Y481363D01*
X244837Y484721D01*
X249225Y486539D01*
X253975Y486539D01*
X258363Y484721D01*
X261721Y481363D01*
X263539Y476975D01*
X263539Y472225D01*
X261721Y467837D01*
X258363Y464479D01*
X253975Y462661D01*
X249225Y462661D01*
G37*
%LPD*%
%LPC*%
G36*
X1129225Y488061D02*
X1129225Y488061D01*
X1124837Y489879D01*
X1121479Y493237D01*
X1119661Y497625D01*
X1119661Y502375D01*
X1121479Y506763D01*
X1124837Y510121D01*
X1129225Y511939D01*
X1133975Y511939D01*
X1138363Y510121D01*
X1141721Y506763D01*
X1143539Y502375D01*
X1143539Y497625D01*
X1141721Y493237D01*
X1138363Y489879D01*
X1133975Y488061D01*
X1129225Y488061D01*
G37*
%LPD*%
%LPC*%
G36*
X1129225Y462661D02*
X1129225Y462661D01*
X1124837Y464479D01*
X1121479Y467837D01*
X1119661Y472225D01*
X1119661Y476975D01*
X1121479Y481363D01*
X1124837Y484721D01*
X1129225Y486539D01*
X1133975Y486539D01*
X1138363Y484721D01*
X1141721Y481363D01*
X1143539Y476975D01*
X1143539Y472225D01*
X1141721Y467837D01*
X1138363Y464479D01*
X1133975Y462661D01*
X1129225Y462661D01*
G37*
%LPD*%
%LPC*%
G36*
X572565Y-11431D02*
X572565Y-11431D01*
X565869Y-4735D01*
X565869Y4735D01*
X572565Y11431D01*
X582035Y11431D01*
X588731Y4735D01*
X588731Y-4735D01*
X582035Y-11431D01*
X572565Y-11431D01*
G37*
%LPD*%
%LPC*%
G36*
X332914Y469411D02*
X332914Y469411D01*
X326711Y475614D01*
X326711Y484386D01*
X332914Y490589D01*
X341686Y490589D01*
X347889Y484386D01*
X347889Y475614D01*
X341686Y469411D01*
X332914Y469411D01*
G37*
%LPD*%
%LPC*%
G36*
X332914Y418611D02*
X332914Y418611D01*
X326711Y424814D01*
X326711Y433586D01*
X332914Y439789D01*
X341686Y439789D01*
X347889Y433586D01*
X347889Y424814D01*
X341686Y418611D01*
X332914Y418611D01*
G37*
%LPD*%
%LPC*%
G36*
X332914Y444011D02*
X332914Y444011D01*
X326711Y450214D01*
X326711Y458986D01*
X332914Y465189D01*
X341686Y465189D01*
X347889Y458986D01*
X347889Y450214D01*
X341686Y444011D01*
X332914Y444011D01*
G37*
%LPD*%
%LPC*%
G36*
X358314Y520211D02*
X358314Y520211D01*
X352111Y526414D01*
X352111Y535186D01*
X358314Y541389D01*
X367086Y541389D01*
X373289Y535186D01*
X373289Y526414D01*
X367086Y520211D01*
X358314Y520211D01*
G37*
%LPD*%
%LPC*%
G36*
X560231Y229451D02*
X560231Y229451D01*
X554051Y235631D01*
X554051Y244369D01*
X560231Y250549D01*
X568969Y250549D01*
X575149Y244369D01*
X575149Y235631D01*
X568969Y229451D01*
X560231Y229451D01*
G37*
%LPD*%
%LPC*%
G36*
X611031Y229451D02*
X611031Y229451D01*
X604851Y235631D01*
X604851Y244369D01*
X611031Y250549D01*
X619769Y250549D01*
X625949Y244369D01*
X625949Y235631D01*
X619769Y229451D01*
X611031Y229451D01*
G37*
%LPD*%
%LPC*%
G36*
X505776Y420601D02*
X505776Y420601D01*
X499801Y426576D01*
X499801Y435024D01*
X505776Y440999D01*
X514224Y440999D01*
X520199Y435024D01*
X520199Y426576D01*
X514224Y420601D01*
X505776Y420601D01*
G37*
%LPD*%
%LPC*%
G36*
X174976Y319801D02*
X174976Y319801D01*
X169001Y325776D01*
X169001Y334224D01*
X174976Y340199D01*
X183424Y340199D01*
X189399Y334224D01*
X189399Y325776D01*
X183424Y319801D01*
X174976Y319801D01*
G37*
%LPD*%
%LPC*%
G36*
X505776Y90601D02*
X505776Y90601D01*
X499801Y96576D01*
X499801Y105024D01*
X505776Y110999D01*
X514224Y110999D01*
X520199Y105024D01*
X520199Y96576D01*
X514224Y90601D01*
X505776Y90601D01*
G37*
%LPD*%
%LPC*%
G36*
X996576Y319801D02*
X996576Y319801D01*
X990601Y325776D01*
X990601Y334224D01*
X996576Y340199D01*
X1005024Y340199D01*
X1010999Y334224D01*
X1010999Y325776D01*
X1005024Y319801D01*
X996576Y319801D01*
G37*
%LPD*%
%LPC*%
G36*
X534976Y49801D02*
X534976Y49801D01*
X529001Y55776D01*
X529001Y64224D01*
X534976Y70199D01*
X543424Y70199D01*
X549399Y64224D01*
X549399Y55776D01*
X543424Y49801D01*
X534976Y49801D01*
G37*
%LPD*%
%LPC*%
G36*
X505776Y550601D02*
X505776Y550601D01*
X499801Y556576D01*
X499801Y565024D01*
X505776Y570999D01*
X514224Y570999D01*
X520199Y565024D01*
X520199Y556576D01*
X514224Y550601D01*
X505776Y550601D01*
G37*
%LPD*%
%LPC*%
G36*
X276576Y319801D02*
X276576Y319801D01*
X270601Y325776D01*
X270601Y334224D01*
X276576Y340199D01*
X285024Y340199D01*
X290999Y334224D01*
X290999Y325776D01*
X285024Y319801D01*
X276576Y319801D01*
G37*
%LPD*%
%LPC*%
G36*
X505776Y449001D02*
X505776Y449001D01*
X499801Y454976D01*
X499801Y463424D01*
X505776Y469399D01*
X514224Y469399D01*
X520199Y463424D01*
X520199Y454976D01*
X514224Y449001D01*
X505776Y449001D01*
G37*
%LPD*%
%LPC*%
G36*
X894976Y319801D02*
X894976Y319801D01*
X889001Y325776D01*
X889001Y334224D01*
X894976Y340199D01*
X903424Y340199D01*
X909399Y334224D01*
X909399Y325776D01*
X903424Y319801D01*
X894976Y319801D01*
G37*
%LPD*%
%LPC*%
G36*
X505776Y-10999D02*
X505776Y-10999D01*
X499801Y-5024D01*
X499801Y3424D01*
X505776Y9399D01*
X514224Y9399D01*
X520199Y3424D01*
X520199Y-5024D01*
X514224Y-10999D01*
X505776Y-10999D01*
G37*
%LPD*%
%LPC*%
G36*
X309523Y93523D02*
X309523Y93523D01*
X309523Y112443D01*
X310702Y112257D01*
X312430Y111695D01*
X314049Y110871D01*
X315518Y109803D01*
X316803Y108518D01*
X317871Y107049D01*
X318695Y105430D01*
X319257Y103702D01*
X319541Y101908D01*
X319541Y93523D01*
X309523Y93523D01*
G37*
%LPD*%
%LPC*%
G36*
X261523Y121523D02*
X261523Y121523D01*
X261523Y131541D01*
X269908Y131541D01*
X271702Y131257D01*
X273430Y130695D01*
X275049Y129871D01*
X276518Y128803D01*
X277803Y127518D01*
X278871Y126049D01*
X279695Y124430D01*
X280257Y122702D01*
X280443Y121523D01*
X261523Y121523D01*
G37*
%LPD*%
%LPC*%
G36*
X309523Y90477D02*
X309523Y90477D01*
X319541Y90477D01*
X319541Y82092D01*
X319257Y80298D01*
X318695Y78570D01*
X317871Y76951D01*
X316803Y75482D01*
X315518Y74197D01*
X314049Y73129D01*
X312430Y72305D01*
X310702Y71743D01*
X309523Y71557D01*
X309523Y90477D01*
G37*
%LPD*%
%LPC*%
G36*
X239557Y121523D02*
X239557Y121523D01*
X239743Y122702D01*
X240305Y124430D01*
X241129Y126049D01*
X242197Y127518D01*
X243482Y128803D01*
X244951Y129871D01*
X246570Y130695D01*
X248298Y131257D01*
X250092Y131541D01*
X258477Y131541D01*
X258477Y121523D01*
X239557Y121523D01*
G37*
%LPD*%
%LPC*%
G36*
X296459Y93523D02*
X296459Y93523D01*
X296459Y101908D01*
X296743Y103702D01*
X297305Y105430D01*
X298129Y107049D01*
X299197Y108518D01*
X300482Y109803D01*
X301951Y110871D01*
X303570Y111695D01*
X305298Y112257D01*
X306477Y112443D01*
X306477Y93523D01*
X296459Y93523D01*
G37*
%LPD*%
%LPC*%
G36*
X261523Y108459D02*
X261523Y108459D01*
X261523Y118477D01*
X280443Y118477D01*
X280257Y117298D01*
X279695Y115570D01*
X278871Y113951D01*
X277803Y112482D01*
X276518Y111197D01*
X275049Y110129D01*
X273430Y109305D01*
X271702Y108743D01*
X269908Y108459D01*
X261523Y108459D01*
G37*
%LPD*%
%LPC*%
G36*
X305298Y71743D02*
X305298Y71743D01*
X303570Y72305D01*
X301951Y73129D01*
X300482Y74197D01*
X299197Y75482D01*
X298129Y76951D01*
X297305Y78570D01*
X296743Y80298D01*
X296459Y82092D01*
X296459Y90477D01*
X306477Y90477D01*
X306477Y71557D01*
X305298Y71743D01*
G37*
%LPD*%
%LPC*%
G36*
X250092Y108459D02*
X250092Y108459D01*
X248298Y108743D01*
X246570Y109305D01*
X244951Y110129D01*
X243482Y111197D01*
X242197Y112482D01*
X241129Y113951D01*
X240305Y115570D01*
X239743Y117298D01*
X239557Y118477D01*
X258477Y118477D01*
X258477Y108459D01*
X250092Y108459D01*
G37*
%LPD*%
%LPC*%
G36*
X1063273Y425323D02*
X1063273Y425323D01*
X1063273Y435231D01*
X1071540Y435231D01*
X1073317Y434949D01*
X1075028Y434393D01*
X1076631Y433576D01*
X1078087Y432519D01*
X1079359Y431247D01*
X1080416Y429791D01*
X1081233Y428188D01*
X1081789Y426477D01*
X1081972Y425323D01*
X1063273Y425323D01*
G37*
%LPD*%
%LPC*%
G36*
X183273Y425323D02*
X183273Y425323D01*
X183273Y435231D01*
X191540Y435231D01*
X193317Y434949D01*
X195028Y434393D01*
X196631Y433576D01*
X198087Y432519D01*
X199359Y431247D01*
X200416Y429791D01*
X201233Y428188D01*
X201789Y426477D01*
X201972Y425323D01*
X183273Y425323D01*
G37*
%LPD*%
%LPC*%
G36*
X1041528Y425323D02*
X1041528Y425323D01*
X1041711Y426477D01*
X1042267Y428188D01*
X1043084Y429791D01*
X1044141Y431247D01*
X1045413Y432519D01*
X1046869Y433576D01*
X1048472Y434393D01*
X1050183Y434949D01*
X1051960Y435231D01*
X1060227Y435231D01*
X1060227Y425323D01*
X1041528Y425323D01*
G37*
%LPD*%
%LPC*%
G36*
X161528Y425323D02*
X161528Y425323D01*
X161711Y426477D01*
X162267Y428188D01*
X163084Y429791D01*
X164141Y431247D01*
X165413Y432519D01*
X166869Y433576D01*
X168472Y434393D01*
X170183Y434949D01*
X171960Y435231D01*
X180227Y435231D01*
X180227Y425323D01*
X161528Y425323D01*
G37*
%LPD*%
%LPC*%
G36*
X183273Y412369D02*
X183273Y412369D01*
X183273Y422277D01*
X201972Y422277D01*
X201789Y421123D01*
X201233Y419412D01*
X200416Y417809D01*
X199359Y416353D01*
X198087Y415081D01*
X196631Y414024D01*
X195028Y413207D01*
X193317Y412651D01*
X191540Y412369D01*
X183273Y412369D01*
G37*
%LPD*%
%LPC*%
G36*
X1063273Y412369D02*
X1063273Y412369D01*
X1063273Y422277D01*
X1081972Y422277D01*
X1081789Y421123D01*
X1081233Y419412D01*
X1080416Y417809D01*
X1079359Y416353D01*
X1078087Y415081D01*
X1076631Y414024D01*
X1075028Y413207D01*
X1073317Y412651D01*
X1071540Y412369D01*
X1063273Y412369D01*
G37*
%LPD*%
%LPC*%
G36*
X1051960Y412369D02*
X1051960Y412369D01*
X1050183Y412651D01*
X1048472Y413207D01*
X1046869Y414024D01*
X1045413Y415081D01*
X1044141Y416353D01*
X1043084Y417809D01*
X1042267Y419412D01*
X1041711Y421123D01*
X1041528Y422277D01*
X1060227Y422277D01*
X1060227Y412369D01*
X1051960Y412369D01*
G37*
%LPD*%
%LPC*%
G36*
X171960Y412369D02*
X171960Y412369D01*
X170183Y412651D01*
X168472Y413207D01*
X166869Y414024D01*
X165413Y415081D01*
X164141Y416353D01*
X163084Y417809D01*
X162267Y419412D01*
X161711Y421123D01*
X161528Y422277D01*
X180227Y422277D01*
X180227Y412369D01*
X171960Y412369D01*
G37*
%LPD*%
%LPC*%
G36*
X253123Y526923D02*
X253123Y526923D01*
X253123Y536732D01*
X254277Y536549D01*
X255988Y535993D01*
X257591Y535176D01*
X259047Y534119D01*
X260319Y532847D01*
X261376Y531391D01*
X262193Y529788D01*
X262749Y528077D01*
X262932Y526923D01*
X253123Y526923D01*
G37*
%LPD*%
%LPC*%
G36*
X126123Y603123D02*
X126123Y603123D01*
X126123Y612932D01*
X127277Y612749D01*
X128988Y612193D01*
X130591Y611376D01*
X132047Y610319D01*
X133319Y609047D01*
X134376Y607591D01*
X135193Y605988D01*
X135749Y604277D01*
X135932Y603123D01*
X126123Y603123D01*
G37*
%LPD*%
%LPC*%
G36*
X1133123Y526923D02*
X1133123Y526923D01*
X1133123Y536732D01*
X1134277Y536549D01*
X1135988Y535993D01*
X1137591Y535176D01*
X1139047Y534119D01*
X1140319Y532847D01*
X1141376Y531391D01*
X1142193Y529788D01*
X1142749Y528077D01*
X1142932Y526923D01*
X1133123Y526923D01*
G37*
%LPD*%
%LPC*%
G36*
X1006123Y603123D02*
X1006123Y603123D01*
X1006123Y612932D01*
X1007277Y612749D01*
X1008988Y612193D01*
X1010591Y611376D01*
X1012047Y610319D01*
X1013319Y609047D01*
X1014376Y607591D01*
X1015193Y605988D01*
X1015749Y604277D01*
X1015932Y603123D01*
X1006123Y603123D01*
G37*
%LPD*%
%LPC*%
G36*
X113268Y603123D02*
X113268Y603123D01*
X113451Y604277D01*
X114007Y605988D01*
X114824Y607591D01*
X115881Y609047D01*
X117153Y610319D01*
X118609Y611376D01*
X120212Y612193D01*
X121923Y612749D01*
X123077Y612932D01*
X123077Y603123D01*
X113268Y603123D01*
G37*
%LPD*%
%LPC*%
G36*
X993268Y603123D02*
X993268Y603123D01*
X993451Y604277D01*
X994007Y605988D01*
X994824Y607591D01*
X995881Y609047D01*
X997153Y610319D01*
X998609Y611376D01*
X1000212Y612193D01*
X1001923Y612749D01*
X1003077Y612932D01*
X1003077Y603123D01*
X993268Y603123D01*
G37*
%LPD*%
%LPC*%
G36*
X240268Y526923D02*
X240268Y526923D01*
X240451Y528077D01*
X241007Y529788D01*
X241824Y531391D01*
X242881Y532847D01*
X244153Y534119D01*
X245609Y535176D01*
X247212Y535993D01*
X248923Y536549D01*
X250077Y536732D01*
X250077Y526923D01*
X240268Y526923D01*
G37*
%LPD*%
%LPC*%
G36*
X1133123Y523877D02*
X1133123Y523877D01*
X1142932Y523877D01*
X1142749Y522723D01*
X1142193Y521012D01*
X1141376Y519409D01*
X1140319Y517953D01*
X1139047Y516681D01*
X1137591Y515624D01*
X1135988Y514807D01*
X1134277Y514251D01*
X1133123Y514068D01*
X1133123Y523877D01*
G37*
%LPD*%
%LPC*%
G36*
X253123Y523877D02*
X253123Y523877D01*
X262932Y523877D01*
X262749Y522723D01*
X262193Y521012D01*
X261376Y519409D01*
X260319Y517953D01*
X259047Y516681D01*
X257591Y515624D01*
X255988Y514807D01*
X254277Y514251D01*
X253123Y514068D01*
X253123Y523877D01*
G37*
%LPD*%
%LPC*%
G36*
X126123Y600077D02*
X126123Y600077D01*
X135932Y600077D01*
X135749Y598923D01*
X135193Y597212D01*
X134376Y595609D01*
X133319Y594153D01*
X132047Y592881D01*
X130591Y591824D01*
X128988Y591007D01*
X127277Y590451D01*
X126123Y590268D01*
X126123Y600077D01*
G37*
%LPD*%
%LPC*%
G36*
X1006123Y600077D02*
X1006123Y600077D01*
X1015932Y600077D01*
X1015749Y598923D01*
X1015193Y597212D01*
X1014376Y595609D01*
X1013319Y594153D01*
X1012047Y592881D01*
X1010591Y591824D01*
X1008988Y591007D01*
X1007277Y590451D01*
X1006123Y590268D01*
X1006123Y600077D01*
G37*
%LPD*%
%LPC*%
G36*
X1120268Y526923D02*
X1120268Y526923D01*
X1120451Y528077D01*
X1121007Y529788D01*
X1121824Y531391D01*
X1122881Y532847D01*
X1124153Y534119D01*
X1125609Y535176D01*
X1127212Y535993D01*
X1128923Y536549D01*
X1130077Y536732D01*
X1130077Y526923D01*
X1120268Y526923D01*
G37*
%LPD*%
%LPC*%
G36*
X1001923Y590451D02*
X1001923Y590451D01*
X1000212Y591007D01*
X998609Y591824D01*
X997153Y592881D01*
X995881Y594153D01*
X994824Y595609D01*
X994007Y597212D01*
X993451Y598923D01*
X993268Y600077D01*
X1003077Y600077D01*
X1003077Y590268D01*
X1001923Y590451D01*
G37*
%LPD*%
%LPC*%
G36*
X1128923Y514251D02*
X1128923Y514251D01*
X1127212Y514807D01*
X1125609Y515624D01*
X1124153Y516681D01*
X1122881Y517953D01*
X1121824Y519409D01*
X1121007Y521012D01*
X1120451Y522723D01*
X1120268Y523877D01*
X1130077Y523877D01*
X1130077Y514068D01*
X1128923Y514251D01*
G37*
%LPD*%
%LPC*%
G36*
X121923Y590451D02*
X121923Y590451D01*
X120212Y591007D01*
X118609Y591824D01*
X117153Y592881D01*
X115881Y594153D01*
X114824Y595609D01*
X114007Y597212D01*
X113451Y598923D01*
X113268Y600077D01*
X123077Y600077D01*
X123077Y590268D01*
X121923Y590451D01*
G37*
%LPD*%
%LPC*%
G36*
X248923Y514251D02*
X248923Y514251D01*
X247212Y514807D01*
X245609Y515624D01*
X244153Y516681D01*
X242881Y517953D01*
X241824Y519409D01*
X241007Y521012D01*
X240451Y522723D01*
X240268Y523877D01*
X250077Y523877D01*
X250077Y514068D01*
X248923Y514251D01*
G37*
%LPD*%
%LPC*%
G36*
X604223Y-10923D02*
X604223Y-10923D01*
X604223Y-1523D01*
X613623Y-1523D01*
X613623Y-4524D01*
X607224Y-10923D01*
X604223Y-10923D01*
G37*
%LPD*%
%LPC*%
G36*
X604223Y1523D02*
X604223Y1523D01*
X604223Y10923D01*
X607224Y10923D01*
X613623Y4524D01*
X613623Y1523D01*
X604223Y1523D01*
G37*
%LPD*%
%LPC*%
G36*
X598176Y-10923D02*
X598176Y-10923D01*
X591777Y-4524D01*
X591777Y-1523D01*
X601177Y-1523D01*
X601177Y-10923D01*
X598176Y-10923D01*
G37*
%LPD*%
%LPC*%
G36*
X591777Y1523D02*
X591777Y1523D01*
X591777Y4524D01*
X598176Y10923D01*
X601177Y10923D01*
X601177Y1523D01*
X591777Y1523D01*
G37*
%LPD*%
%LPC*%
G36*
X338823Y532323D02*
X338823Y532323D01*
X338823Y540881D01*
X341476Y540881D01*
X347381Y534976D01*
X347381Y532323D01*
X338823Y532323D01*
G37*
%LPD*%
%LPC*%
G36*
X327219Y532323D02*
X327219Y532323D01*
X327219Y534976D01*
X333124Y540881D01*
X335777Y540881D01*
X335777Y532323D01*
X327219Y532323D01*
G37*
%LPD*%
%LPC*%
G36*
X338823Y520719D02*
X338823Y520719D01*
X338823Y529277D01*
X347381Y529277D01*
X347381Y526624D01*
X341476Y520719D01*
X338823Y520719D01*
G37*
%LPD*%
%LPC*%
G36*
X333124Y520719D02*
X333124Y520719D01*
X327219Y526624D01*
X327219Y529277D01*
X335777Y529277D01*
X335777Y520719D01*
X333124Y520719D01*
G37*
%LPD*%
%LPC*%
G36*
X621523Y279799D02*
X621523Y279799D01*
X621523Y288317D01*
X630041Y288317D01*
X630041Y285681D01*
X624159Y279799D01*
X621523Y279799D01*
G37*
%LPD*%
%LPC*%
G36*
X561523Y279799D02*
X561523Y279799D01*
X561523Y288317D01*
X570041Y288317D01*
X570041Y285681D01*
X564159Y279799D01*
X561523Y279799D01*
G37*
%LPD*%
%LPC*%
G36*
X615841Y279799D02*
X615841Y279799D01*
X609959Y285681D01*
X609959Y288317D01*
X618477Y288317D01*
X618477Y279799D01*
X615841Y279799D01*
G37*
%LPD*%
%LPC*%
G36*
X555841Y279799D02*
X555841Y279799D01*
X549959Y285681D01*
X549959Y288317D01*
X558477Y288317D01*
X558477Y279799D01*
X555841Y279799D01*
G37*
%LPD*%
%LPC*%
G36*
X511523Y330723D02*
X511523Y330723D01*
X511523Y338891D01*
X514014Y338891D01*
X519691Y333214D01*
X519691Y330723D01*
X511523Y330723D01*
G37*
%LPD*%
%LPC*%
G36*
X642323Y61523D02*
X642323Y61523D01*
X642323Y69691D01*
X644814Y69691D01*
X650491Y64014D01*
X650491Y61523D01*
X642323Y61523D01*
G37*
%LPD*%
%LPC*%
G36*
X631109Y61523D02*
X631109Y61523D01*
X631109Y64014D01*
X636786Y69691D01*
X639277Y69691D01*
X639277Y61523D01*
X631109Y61523D01*
G37*
%LPD*%
%LPC*%
G36*
X500309Y330723D02*
X500309Y330723D01*
X500309Y333214D01*
X505986Y338891D01*
X508477Y338891D01*
X508477Y330723D01*
X500309Y330723D01*
G37*
%LPD*%
%LPC*%
G36*
X642323Y50309D02*
X642323Y50309D01*
X642323Y58477D01*
X650491Y58477D01*
X650491Y55986D01*
X644814Y50309D01*
X642323Y50309D01*
G37*
%LPD*%
%LPC*%
G36*
X511523Y319509D02*
X511523Y319509D01*
X511523Y327677D01*
X519691Y327677D01*
X519691Y325186D01*
X514014Y319509D01*
X511523Y319509D01*
G37*
%LPD*%
%LPC*%
G36*
X505986Y319509D02*
X505986Y319509D01*
X500309Y325186D01*
X500309Y327677D01*
X508477Y327677D01*
X508477Y319509D01*
X505986Y319509D01*
G37*
%LPD*%
%LPC*%
G36*
X636786Y50309D02*
X636786Y50309D01*
X631109Y55986D01*
X631109Y58477D01*
X639277Y58477D01*
X639277Y50309D01*
X636786Y50309D01*
G37*
%LPD*%
%LPC*%
G36*
X1004599Y601599D02*
X1004599Y601599D01*
X1004599Y601601D01*
X1004601Y601601D01*
X1004601Y601599D01*
X1004599Y601599D01*
G37*
%LPD*%
%LPC*%
G36*
X640799Y59999D02*
X640799Y59999D01*
X640799Y60001D01*
X640801Y60001D01*
X640801Y59999D01*
X640799Y59999D01*
G37*
%LPD*%
%LPC*%
G36*
X124599Y601599D02*
X124599Y601599D01*
X124599Y601601D01*
X124601Y601601D01*
X124601Y601599D01*
X124599Y601599D01*
G37*
%LPD*%
%LPC*%
G36*
X307999Y91999D02*
X307999Y91999D01*
X307999Y92001D01*
X308001Y92001D01*
X308001Y91999D01*
X307999Y91999D01*
G37*
%LPD*%
%LPC*%
G36*
X509999Y329199D02*
X509999Y329199D01*
X509999Y329201D01*
X510001Y329201D01*
X510001Y329199D01*
X509999Y329199D01*
G37*
%LPD*%
%LPC*%
G36*
X181749Y423799D02*
X181749Y423799D01*
X181749Y423801D01*
X181751Y423801D01*
X181751Y423799D01*
X181749Y423799D01*
G37*
%LPD*%
%LPC*%
G36*
X1131599Y525399D02*
X1131599Y525399D01*
X1131599Y525401D01*
X1131601Y525401D01*
X1131601Y525399D01*
X1131599Y525399D01*
G37*
%LPD*%
%LPC*%
G36*
X251599Y525399D02*
X251599Y525399D01*
X251599Y525401D01*
X251601Y525401D01*
X251601Y525399D01*
X251599Y525399D01*
G37*
%LPD*%
%LPC*%
G36*
X337299Y530799D02*
X337299Y530799D01*
X337299Y530801D01*
X337301Y530801D01*
X337301Y530799D01*
X337299Y530799D01*
G37*
%LPD*%
%LPC*%
G36*
X259999Y119999D02*
X259999Y119999D01*
X259999Y120001D01*
X260001Y120001D01*
X260001Y119999D01*
X259999Y119999D01*
G37*
%LPD*%
%LPC*%
G36*
X1061749Y423799D02*
X1061749Y423799D01*
X1061749Y423801D01*
X1061751Y423801D01*
X1061751Y423799D01*
X1061749Y423799D01*
G37*
%LPD*%
%LPC*%
G36*
X602699Y-1D02*
X602699Y-1D01*
X602699Y1D01*
X602701Y1D01*
X602701Y-1D01*
X602699Y-1D01*
G37*
%LPD*%
D10*
X564600Y240000D03*
X615400Y240000D03*
D11*
X564600Y348080D02*
X564600Y363320D01*
X590000Y363320D02*
X590000Y348080D01*
X615400Y348080D02*
X615400Y363320D01*
D12*
X337300Y429200D03*
X362700Y429200D03*
X337300Y454600D03*
X362700Y454600D03*
X337300Y480000D03*
X362700Y480000D03*
X337300Y505400D03*
X362700Y505400D03*
X337300Y530800D03*
X362700Y530800D03*
D13*
X640800Y60000D03*
X539200Y60000D03*
X1000800Y330000D03*
X899200Y330000D03*
D14*
X179200Y330000D03*
X280800Y330000D03*
D15*
X510000Y459200D03*
X510000Y560800D03*
X510000Y329200D03*
X510000Y430800D03*
D16*
X440000Y-30000D03*
X465400Y-30000D03*
X414600Y-30000D03*
D17*
X577300Y0D03*
X602700Y0D03*
D15*
X510000Y-800D03*
X510000Y100800D03*
D18*
X269000Y120000D02*
X251000Y120000D01*
X251000Y62000D02*
X269000Y62000D01*
X308000Y83000D02*
X308000Y101000D01*
D19*
X226200Y433325D03*
X73800Y433325D03*
X73800Y566675D03*
X226200Y566675D03*
D20*
X124600Y601600D03*
X150000Y601600D03*
X175400Y601600D03*
X251600Y500000D03*
X251600Y525400D03*
X251600Y474600D03*
D21*
X127140Y423800D02*
X109360Y423800D01*
X172860Y423800D02*
X190640Y423800D01*
X190640Y378800D02*
X172860Y378800D01*
X127140Y378800D02*
X109360Y378800D01*
D19*
X1106200Y433325D03*
X953800Y433325D03*
X953800Y566675D03*
X1106200Y566675D03*
D20*
X1004600Y601600D03*
X1030000Y601600D03*
X1055400Y601600D03*
X1131600Y500000D03*
X1131600Y525400D03*
X1131600Y474600D03*
D21*
X1007140Y423800D02*
X989360Y423800D01*
X1052860Y423800D02*
X1070640Y423800D01*
X1070640Y378800D02*
X1052860Y378800D01*
X1007140Y378800D02*
X989360Y378800D01*
D22*
X536470Y125108D02*
X518563Y125108D01*
X643531Y125108D02*
X661438Y125108D01*
X536470Y174892D02*
X518563Y174892D01*
X643531Y174892D02*
X661438Y174892D01*
D23*
X690000Y39200D03*
X690000Y140800D03*
X750800Y355000D03*
X649200Y355000D03*
D24*
X620000Y289840D03*
D25*
X620000Y310160D03*
D24*
X560000Y289840D03*
D25*
X560000Y310160D03*
D26*
X386975Y492975D03*
D27*
X349725Y492975D01*
X337300Y505400D01*
D28*
X630000Y330000D03*
D27*
X615700Y330000D01*
X590000Y355700D01*
D28*
X80000Y490000D03*
X110000Y460000D03*
X50000Y520000D03*
X1070000Y480000D03*
X1090000Y510000D03*
X1110000Y540000D03*
X790000Y30000D03*
X830000Y30000D03*
X750000Y150000D03*
X790000Y150000D03*
X830000Y150000D03*
X310000Y0D03*
X370000Y0D03*
X370000Y130000D03*
X310000Y130000D03*
X230000Y270000D03*
X290000Y270000D03*
X250000Y380000D03*
X310000Y380000D03*
X320000Y550000D03*
X320000Y500000D03*
X470000Y520000D03*
X740000Y490000D03*
X800000Y490000D03*
X860000Y490000D03*
X860000Y440000D03*
X800000Y440000D03*
X740000Y440000D03*
X740000Y390000D03*
X800000Y390000D03*
X860000Y390000D03*
X860000Y310000D03*
X800000Y310000D03*
X740000Y310000D03*
X590000Y170000D03*
X470000Y440000D03*
X470000Y380000D03*
X1020000Y570000D03*
X990000Y530000D03*
X960000Y490000D03*
X150000Y570000D03*
X180000Y540000D03*
X210000Y510000D03*
X430000Y130000D03*
X750000Y30000D03*
D26*
X398000Y495574D03*
D27*
X398000Y467000D01*
X385600Y454600D02*
X362700Y454600D01*
X385600Y454600D02*
X398000Y467000D01*
D26*
X410000Y495574D03*
D27*
X410000Y443000D01*
X396200Y429200D02*
X362700Y429200D01*
X396200Y429200D02*
X410000Y443000D01*
D28*
X550000Y520000D03*
X550000Y540000D03*
X550000Y560000D03*
X630000Y560000D03*
X630000Y540000D03*
X630000Y520000D03*
X630000Y500000D03*
X610000Y500000D03*
X590000Y500000D03*
X570000Y500000D03*
X550000Y500000D03*
X550000Y480000D03*
X550000Y460000D03*
X550000Y440000D03*
X570000Y440000D03*
X570000Y460000D03*
X570000Y480000D03*
X590000Y480000D03*
X590000Y460000D03*
X590000Y440000D03*
X610000Y440000D03*
X610000Y460000D03*
X610000Y480000D03*
X630000Y480000D03*
X630000Y460000D03*
X630000Y440000D03*
M02*
