G04 EAGLE Gerber RS-274X export*
G75*
%MOMM*%
%FSLAX34Y34*%
%LPD*%
%INSoldermask Bottom*%
%IPPOS*%
%AMOC8*
5,1,8,0,0,1.08239X$1,22.5*%
G01*
%ADD10P,1.843527X8X22.500000*%
%ADD11C,1.727200*%
%ADD12P,1.852186X8X112.500000*%
%ADD13P,1.767759X8X202.500000*%
%ADD14P,1.767759X8X22.500000*%
%ADD15P,1.767759X8X112.500000*%
%ADD16C,1.879600*%
%ADD17P,2.034460X8X22.500000*%
%ADD18C,2.003200*%
%ADD19C,2.743200*%
%ADD20C,1.981200*%
%ADD21C,1.981200*%
%ADD22C,1.993900*%
%ADD23C,2.133600*%
%ADD24P,1.843527X8X292.500000*%
%ADD25C,1.703200*%
%ADD26C,2.903200*%


D10*
X564600Y240000D03*
X615400Y240000D03*
D11*
X564600Y348080D02*
X564600Y363320D01*
X590000Y363320D02*
X590000Y348080D01*
X615400Y348080D02*
X615400Y363320D01*
D12*
X337300Y429200D03*
X362700Y429200D03*
X337300Y454600D03*
X362700Y454600D03*
X337300Y480000D03*
X362700Y480000D03*
X337300Y505400D03*
X362700Y505400D03*
X337300Y530800D03*
X362700Y530800D03*
D13*
X640800Y60000D03*
X539200Y60000D03*
X1000800Y330000D03*
X899200Y330000D03*
D14*
X179200Y330000D03*
X280800Y330000D03*
D15*
X510000Y459200D03*
X510000Y560800D03*
X510000Y329200D03*
X510000Y430800D03*
D16*
X440000Y-30000D03*
X465400Y-30000D03*
X414600Y-30000D03*
D17*
X577300Y0D03*
X602700Y0D03*
D15*
X510000Y-800D03*
X510000Y100800D03*
D18*
X269000Y120000D02*
X251000Y120000D01*
X251000Y62000D02*
X269000Y62000D01*
X308000Y83000D02*
X308000Y101000D01*
D19*
X226200Y433325D03*
X73800Y433325D03*
X73800Y566675D03*
X226200Y566675D03*
D20*
X124600Y601600D03*
X150000Y601600D03*
X175400Y601600D03*
X251600Y500000D03*
X251600Y525400D03*
X251600Y474600D03*
D21*
X127140Y423800D02*
X109360Y423800D01*
X172860Y423800D02*
X190640Y423800D01*
X190640Y378800D02*
X172860Y378800D01*
X127140Y378800D02*
X109360Y378800D01*
D19*
X1106200Y433325D03*
X953800Y433325D03*
X953800Y566675D03*
X1106200Y566675D03*
D20*
X1004600Y601600D03*
X1030000Y601600D03*
X1055400Y601600D03*
X1131600Y500000D03*
X1131600Y525400D03*
X1131600Y474600D03*
D21*
X1007140Y423800D02*
X989360Y423800D01*
X1052860Y423800D02*
X1070640Y423800D01*
X1070640Y378800D02*
X1052860Y378800D01*
X1007140Y378800D02*
X989360Y378800D01*
D22*
X536470Y125108D02*
X518563Y125108D01*
X643531Y125108D02*
X661438Y125108D01*
X536470Y174892D02*
X518563Y174892D01*
X643531Y174892D02*
X661438Y174892D01*
D23*
X690000Y39200D03*
X690000Y140800D03*
X750800Y355000D03*
X649200Y355000D03*
D24*
X620000Y289840D03*
D25*
X620000Y310160D03*
D24*
X560000Y289840D03*
D25*
X560000Y310160D03*
D26*
X845000Y90000D03*
X735000Y90000D03*
M02*
